<svg width="226" height="267" viewBox="0 0 226 267" fill="none" xmlns="http://www.w3.org/2000/svg">
<path d="M70.0476 223.725C69.6934 222.444 70.0663 220.802 70.5801 219.534C70.7394 219.124 71.4554 219.337 71.5976 219.068C71.8748 218.54 71.5229 218.033 71.8533 217.511C71.9663 217.334 73.1003 217.553 73.1928 217.366C73.6918 216.358 73.4013 215.418 73.6403 214.389C74.8193 209.334 75.2354 204.486 75.742 199.365C75.9081 197.72 76.9328 195.668 76.4796 193.936C76.4257 193.731 75.431 193.855 75.3489 193.817C74.0923 193.207 76.1013 193.39 76.3674 193.01C77.0231 192.062 77.304 191.019 77.3284 189.976C77.3432 189.385 77.2649 188.795 77.1195 188.23C76.952 187.589 74.977 188.238 76.085 187.587C76.1598 187.541 77.2167 187.703 77.329 187.526C77.5817 187.124 77.3914 186.348 77.4745 186.057C77.64 185.474 77.6292 185.376 77.6402 184.816C77.6643 184.06 78.1877 183.089 77.9467 182.301C77.8921 182.128 76.8095 182.359 76.6246 182.083C76.4401 181.808 76.5305 181.069 76.7853 180.817C77.0402 180.565 77.8917 180.67 78.0868 180.626C79.733 180.258 77.4502 179.391 77.3936 179.277C76.4285 177.308 77.7243 175.499 77.7168 173.658C77.7084 172.234 77.2762 170.665 77.3322 169.323C77.4031 167.701 77.987 166.298 77.8828 164.736C77.8731 164.569 76.6 164.767 76.5855 164.564C76.4326 162.379 76.5669 160.264 77.4217 158.083C77.5086 157.864 78.6273 158.143 78.7809 157.925C79.6969 156.606 81.8995 154.518 77.0296 153.734C77.2176 152.82 77.4115 151.758 78.3909 150.951C79.0213 150.433 80.2405 150.932 79.7193 150.299C79.6032 150.156 78.5369 150.344 78.4434 150.13C78.0508 149.228 78.3951 148.222 77.8419 147.342C77.7268 147.161 76.7711 147.213 76.5989 147.162C75.2039 146.735 77.5064 146.009 77.6735 145.852C78.9192 144.656 78.4256 143.763 78.4534 142.66C78.4604 142.403 77.1772 142.71 77.1378 142.462C76.9507 141.178 77.0576 139.838 77.6241 138.565C77.7532 138.283 78.8474 138.539 78.9651 138.405C79.4705 137.814 77.4046 137.688 77.8494 137.121C77.9406 137.001 78.877 137.066 78.9797 137.044C80.5929 136.699 78.3051 136.408 78.2544 136.32C77.5616 135.21 79.9473 134.489 79.6063 133.412C79.5631 133.284 78.3793 133.576 78.3303 133.216C77.9969 130.819 78.3153 128.259 79.2561 125.879C79.4008 125.508 80.2914 125.77 80.4011 125.746C82.1141 125.361 79.8167 125.121 79.7299 125.001C79.1046 124.048 81.028 123.15 78.2907 122.512C79.2283 118.472 77.6799 114.46 80.1176 110.446C80.1459 110.395 81.2772 110.482 81.3287 110.381C81.9598 109.156 80.2027 109.397 78.05 108.595C77.5095 108.394 80.1032 107.764 80.2933 107.709C80.9938 107.506 82.6772 107.708 82.8128 107.641C83.8772 107.082 78.3125 107.191 78.3082 106.444C78.3174 106.42 79.3421 106.515 79.4437 106.452C79.7628 106.256 79.3551 106.064 79.7071 105.872C80.5215 105.433 83.2251 105.268 81.649 104.608C81.4445 104.524 78.2882 104.664 78.4351 103.997C78.4963 103.733 78.4381 102.554 78.6415 102.222C78.8447 101.892 79.8627 102.115 79.9067 102.091C81.2487 101.197 81.8074 101.532 83.7973 101.08C85.7796 100.628 81.0482 100.768 80.5194 100.589C79.9921 100.409 81.0996 99.7547 81.4849 99.5937C81.8703 99.4327 82.5174 99.6294 82.7353 99.4867C84.159 98.541 80.3851 99.0824 79.6329 98.7753C77.852 98.0549 81.3591 97.4636 81.7005 96.7917C81.7927 96.6096 80.994 96.7609 80.9186 96.5993C80.6308 95.9597 81.7244 95.5707 80.7177 94.8478C80.5536 94.7294 78.4416 94.1505 79.9885 93.7655C80.2115 93.711 81.0866 93.8602 81.2814 93.588C81.5739 93.1848 81.7622 92.4408 81.4682 92.0042C81.2507 91.6809 79.8112 92.0579 80.2572 91.6483C80.4564 91.4664 81.3006 91.7989 81.6045 91.4573C81.9083 91.1174 81.8678 90.2537 81.8374 89.926C81.8064 89.5988 80.7141 89.7823 80.6403 89.7562C80.2179 89.5976 79.6883 88.9725 79.6894 88.9173C79.5447 86.0979 81.3763 83.5218 80.7545 80.7769C80.7073 80.5629 79.5553 80.7106 79.5362 80.6781C79.0501 79.9477 82.1171 80.5115 83.1406 79.9958C80.8019 80.0801 81.2241 79.7763 80.9653 79.2639C80.8387 79.0172 79.9336 79.1559 79.8408 79.1338C78.4636 78.7753 80.2392 78.5057 80.6023 78.4374C81.9382 78.1843 80.3572 77.9231 81.2502 77.7514C82.1364 77.5799 83.4531 77.9593 83.434 77.4605C82.5961 77.3246 80.4098 77.7046 80.0534 77.3279C78.7056 75.9057 80.4098 73.2635 80.5824 72.1064C80.7549 70.9643 80.5986 70.601 80.8978 69.9411C81.4389 68.7441 79.8177 69.1827 79.0708 68.4383C78.3239 67.6903 82.3201 68.0352 83.1781 67.9227C84.0359 67.8123 83.1518 67.7013 83.6229 67.5674C84.0939 67.4339 84.6792 67.7144 84.8547 67.4055C85.03 67.0957 83.4987 66.2659 82.6003 66.163C80.697 65.9446 78.7027 66.3302 79.3998 65.5208C79.4412 65.4743 80.4922 65.6188 80.5974 65.4411C81.3982 64.0089 81.44 62.5093 82.147 61.1061C82.2458 60.9127 83.4152 61.0783 83.4859 60.9657C84.2263 59.7696 82.2587 60.203 80.0664 59.5619C82.9796 59.6922 84.7593 59.3162 84.7711 58.4172C84.7791 57.8778 83.5077 57.9787 82.6091 57.637C82.3382 57.5346 83.2093 57.1509 82.6106 57.0864C80.6538 56.8697 78.4672 57.2536 79.3329 56.313C79.3741 56.2714 80.4453 56.3964 80.5092 56.253C80.9277 55.3285 78.8816 55.2313 78.6275 54.2521C78.4282 53.4895 79.6663 52.1222 79.8629 51.2273C83.1373 51.2225 82.3817 50.3964 80.1218 50.0803C80.2101 49.508 80.0783 48.9345 80.3861 48.355C80.4911 48.1613 81.44 48.281 81.5423 48.2559C83.1463 47.8712 80.9481 47.6381 80.861 47.5149C80.312 46.6496 80.8144 45.8947 80.7905 45.1416C80.7773 44.7094 80.609 44.2785 80.0327 43.8329C79.9737 43.7881 77.6987 43.7327 79.3565 43.3794C79.4708 43.3565 80.5092 43.7668 80.5842 43.1695C80.6594 42.5716 81.8692 41.4652 80.8074 40.6171C80.5519 40.416 78.7008 39.9232 80.1396 39.507C80.335 39.4515 80.9879 39.5041 81.3501 39.4232C82.5044 39.1619 80.2042 39.0477 82.1544 38.7382C84.1047 38.4461 85.5609 37.7686 84.2049 36.9475C84.1654 36.9212 82.3414 36.7411 82.3675 36.4798C82.4106 36.0553 82.7843 35.4971 82.7673 35.0329C82.7586 34.8179 81.6287 34.9681 81.6076 34.931C80.9575 33.4935 81.955 32.5304 82.3728 30.9814C82.4516 30.6931 80.8989 29.97 82.1106 29.3835C83.4373 28.7673 89.0005 29.2905 87.6573 27.9556C87.1201 27.4351 80.0627 26.8267 83.697 25.7898C82.7605 23.9152 84.5943 22.0879 83.2577 20.2187C83.1984 20.1318 81.2255 19.9043 81.2473 19.7034C81.2834 19.4045 82.1982 19.2204 82.2534 19.0108C82.506 18.0808 81.698 17.3399 81.7913 16.4334C81.8251 16.1031 82.7789 16.1853 82.819 15.7975C82.8585 15.4229 81.5977 15.1823 82.1819 14.6324C82.6273 14.219 85.1682 13.7248 85.4423 13.1586C82.9198 13.2406 82.9577 12.8953 82.2604 12.2653C82.1251 12.1443 81.2545 12.3233 81.1453 12.2684C80.6813 12.0478 81.3971 11.7913 80.8934 11.5964C80.7724 11.5491 79.9116 11.5923 79.7642 11.5569C78.4772 11.2489 80.3752 10.5064 80.7055 10.3849C81.9599 9.90154 80.8268 9.75588 81.3091 9.41439C81.7906 9.06807 82.453 9.48915 82.7326 9.10308C83.3073 8.25602 83.0859 7.29058 83.0351 6.46649C83.011 6.15359 81.8913 6.49435 81.8613 6.45238C81.5005 5.84134 82.6186 5.00307 80.2991 5.00608C86.0747 3.61765 79.6784 4.70858 80.6743 3.64677C80.7547 3.56385 83.4719 2.86639 83.9395 3.09666C84.4062 3.32603 83.6303 3.94796 84.3279 4.25425C84.4935 4.32829 87.176 4.52101 87.3458 4.59593C88.6683 5.09908 84.5172 5.68143 84.2938 5.74167C81.8752 6.40414 84.7511 6.71311 84.9654 6.90229C85.9349 7.61725 85.4035 8.37123 86.0887 8.99592C86.531 9.39951 89.2705 9.26633 89.2103 9.63852C89.005 10.819 85.2034 11.3979 88.5693 12.3357C89.2863 12.5288 92.2711 12.1593 89.9526 13.0973C89.8066 13.1574 87.6783 13.8737 89.0539 14.1573C89.2274 14.1945 90.1003 14.1594 90.1759 14.2149C90.6651 14.5848 89.98 14.895 90.3277 15.3044C90.6752 15.7062 91.1887 16.2034 90.908 16.7176C90.7399 17.0168 89.1235 17.4246 88.7292 17.5767C87.593 17.9989 89.4861 18.3797 88.1032 18.6692C86.7128 18.9426 84.5798 18.5357 83.6936 19.1797C85.9631 19.1444 88.2933 19.1383 90.5761 19.118C90.5323 20.5407 89.8287 21.9513 89.9558 23.342C89.9738 23.515 91.1903 23.3141 91.2411 23.4996C91.45 24.2883 90.5928 25.0114 90.9526 25.8068C91.2358 26.4277 92.5393 27.1465 92.8742 27.7739C90.2833 28.2039 91.1795 29.1973 90.9517 29.9132C90.873 30.1577 90.1792 30.151 89.9553 30.3283C89.1272 31 91.4179 30.6609 91.7815 30.8383C93.3329 31.6025 88.1398 31.759 88.2793 32.6801C88.2849 32.7267 91.0608 33.2836 91.2342 33.3648C92.3646 33.8743 90.2714 33.462 90.0707 33.7924C89.7036 34.393 89.0474 34.8465 89.8659 35.5337C90.1083 35.7308 91.8392 36.1962 90.5084 36.6082C90.3342 36.6623 89.4186 36.6429 89.3655 36.6855C88.4799 37.4595 91.3558 37.454 92.3342 37.8899C93.3125 38.344 91.3335 39.0012 90.7626 39.1476C89.2858 39.5157 90.1275 38.8824 89.9821 38.8655C88.2514 38.6586 88.5536 39.1361 88.411 39.5105C85.5918 39.5903 85.7659 40.1124 88.2746 39.8994C88.5486 39.8751 88.2829 39.5863 88.411 39.5105C91.1806 39.8113 91.5403 40.3856 88.9608 41.0598C87.7518 41.3692 86.3367 41.1209 86.8613 42.0053C87.0981 42.406 89.0383 42.2333 89.5707 42.5867C90.6473 43.3031 89.3543 44.2511 89.2497 45.074C89.2362 45.1739 89.2423 45.2716 89.2755 45.3665C89.3816 45.6697 90.442 45.365 90.5511 45.5722C90.8438 46.1229 90.0502 46.6222 90.463 47.187C90.5018 47.2382 91.6134 47.1038 91.6289 47.2806C91.7684 48.6459 91.0639 49.7692 91.054 51.1729C91.0497 51.854 91.6715 53.0602 91.5526 53.7434C91.3532 54.9313 89.7452 56.4875 90.1443 57.4796C90.4 58.1445 91.5119 57.9921 92.2718 58.2744C93.7448 58.8188 91.1182 59.8267 90.7114 59.9638C90.6979 59.9677 90.4321 59.3853 89.8628 59.7002C88.6736 59.8885 90.7062 59.9572 90.7114 59.9638C90.4486 60.0561 90.2028 61.2192 90.4168 61.4392C90.5337 61.5619 91.5876 61.4869 91.6287 61.551C92.5809 63.0643 92.8578 64.6739 92.373 66.2067C92.3518 66.2342 91.1723 66.1992 91.1373 66.2639C90.6178 67.1689 92.0635 67.7439 92.9239 68.4935C93.7839 69.2471 93.5002 69.8398 91.4779 70.2876C91.7356 70.846 90.8446 71.6586 90.3038 72.1286C89.763 72.5985 92.0589 72.6531 92.1045 72.694C93.5633 73.9814 92.2528 74.713 92.0545 76.0388C91.9563 76.6684 92.2951 77.9236 92.5492 78.6133C92.7538 79.1505 92.2173 79.4736 92.5635 79.9677C92.6097 80.0346 93.6315 79.9623 93.671 79.9826C94.8963 80.5303 92.3964 80.2756 91.9507 80.3918C90.3297 80.8136 89.4665 81.0733 90.233 81.7825C90.4085 81.946 94.0084 82.41 94.2201 82.71C94.4888 83.1001 93.1985 82.9579 93.5127 83.3668C93.5384 83.4015 94.3339 83.3925 94.2999 83.6414C94.1524 84.7991 93.6948 86.0704 93.7795 87.287C93.788 87.4532 95.049 87.2349 95.0821 87.4751C95.2363 88.6103 95.1944 89.8189 94.6081 90.9187C94.4598 91.1884 93.5755 91.0232 93.3134 91.0826C91.7274 91.4475 94.0358 91.9484 94.0801 92.0325C95.1962 94.042 93.1146 95.5599 94.1159 97.607C94.1746 97.7191 96.6503 98.5652 94.5311 98.9521C94.3901 98.9787 92.2219 99.3626 93.7064 99.6904C93.7993 99.7107 94.9154 99.472 94.803 99.882C94.6909 100.292 95.4391 100.949 94.2139 101.518C93.8279 101.698 91.6652 102.128 93.3922 102.656C93.5128 102.691 97.4164 103.501 94.7261 103.802C94.2832 103.851 91.435 103.811 92.8974 104.44C93.1809 104.561 93.8154 104.338 94.2132 104.656C94.8262 105.144 94.0656 105.796 95.3364 106.394C95.5613 106.499 97.4959 106.94 96.0299 107.304C95.8003 107.361 94.8491 107.257 94.7433 107.447C94.2359 108.353 94.875 109.291 94.22 110.208C93.9899 110.533 92.4523 110.372 92.0414 110.711C91.6307 111.05 91.2368 111.732 91.9403 112.083C92.6442 112.435 95.0928 112.041 95.2905 112.57C96.1492 114.871 94.7191 117.154 94.5157 119.455C94.4853 119.797 95.3611 119.511 95.3792 120.014C95.4499 121.866 96.2811 125.064 94.4228 126.676C92.9345 127.966 91.7941 126.351 91.1897 127.335C90.9014 127.81 93.751 128.315 93.841 128.429C94.755 129.55 93.4954 130.333 93.8852 131.339C93.9661 131.547 95.1199 131.34 95.176 131.517C95.3779 132.121 94.8643 132.757 94.9601 133.333C95.0057 133.591 95.8872 133.542 95.8198 133.782C95.6687 134.356 95.2994 134.863 94.4745 135.423C94.3993 135.474 93.3016 135.134 93.2619 135.557C93.2008 136.242 92.3878 137.092 93.2317 137.873C93.4855 138.105 95.5006 138.107 94.1103 138.614C93.8199 138.72 91.3999 138.591 93.4921 139.173C93.8398 139.272 96.6622 140.25 94.8457 140.736C94.3676 140.864 92.3884 141.194 92.7003 141.473C92.75 141.511 93.832 141.356 93.9382 141.588C94.2935 142.408 94.1801 143.254 94.5212 144.106C94.6144 144.331 95.7336 143.992 95.8368 144.329C96.1221 145.254 95.8397 146.406 95.4913 147.303C95.3607 147.634 94.4324 147.408 94.3315 147.432C92.6901 147.823 94.9073 148.045 95.0369 148.173C95.8128 148.981 94.773 149.598 95.0503 150.338C95.124 150.542 96.1806 150.395 96.2749 150.435C97.1967 150.855 95.2979 150.545 95.0893 150.812C94.4986 151.562 94.5854 152.384 94.7222 153.141C94.774 153.421 95.9989 153.103 96.0312 153.354C96.2458 154.843 96.132 156.368 95.4595 157.801C95.3307 158.076 94.3866 157.905 94.1712 157.963C92.6641 158.36 94.7223 158.929 94.9185 159.06C95.8145 159.658 94.9804 159.891 95.1374 160.417C95.9185 162.977 95.3726 166.142 95.0362 168.606C94.6033 171.745 93.7105 174.201 93.9498 177.257C93.9638 177.448 95.2189 177.253 95.2471 177.417C95.5539 179.507 95.0676 181.658 95.4344 183.795C95.4622 183.973 96.6519 183.715 96.7366 184C96.9188 184.584 96.8556 185.314 96.4767 185.889C96.2941 186.169 95.2721 185.796 95.1092 186.078C94.7276 186.721 94.6443 187.486 94.8364 188.165C94.9208 188.457 96.1371 188.014 96.1519 188.393C96.1775 188.917 96.2067 189.432 96.2238 189.939C96.2913 192.037 96.1733 194.066 94.9211 196.116C94.8131 196.286 92.3396 196.465 92.8148 196.85C93.5014 196.878 94.309 196.875 95.0429 196.886C95.4454 200.645 94.5951 204.395 94.4698 208.154C94.4648 208.31 95.775 208.039 95.772 208.339C95.7562 210.158 96.1225 211.825 94.8233 213.686C94.6962 213.868 92.39 213.756 92.7398 214.308C92.8036 214.41 93.1127 215.216 93.6137 215.409C93.6893 215.436 94.7653 215.294 94.7972 215.542C94.9636 217.063 94.7209 218.637 94.0661 220.136C93.9584 220.368 92.8117 220.124 92.725 220.288C92.1189 221.505 92.9928 222.86 91.9543 224.025C91.2551 224.809 89.2732 224.523 87.3237 224.937C87.0486 225.008 87.0059 225.475 85.8712 225.511C83.018 225.582 79.8931 225.345 76.8519 225.453C76.1969 225.48 76.9034 226.084 75.3198 225.738C75.2139 225.716 74.6876 225.241 74.1503 225.132C73.7789 225.052 72.6252 225.203 72.1495 225.033C71.6744 224.875 72.6414 224.687 72.0825 224.417C71.5166 224.137 70.204 224.272 70.0476 223.725ZM87.8866 74.2501C86.7862 74.6826 90.8243 74.7267 89.856 74.2689C89.8044 74.2467 87.9406 74.2278 87.8866 74.2501ZM86.782 21.9902C85.0136 22.6058 87.6394 22.9447 89.0065 22.5131C90.3717 22.0701 87.318 21.8041 86.782 21.9902ZM85.3284 16.1388C83.9464 16.8515 89.6727 16.7845 88.4926 16.0934C88.4259 16.0535 85.4086 16.0973 85.3284 16.1388ZM86.7647 223.016C86.7111 223.027 86.6594 223.354 86.7126 223.371C87.9953 223.55 88.0976 222.869 86.7647 223.016ZM83.6556 10.3527C82.8948 10.5983 83.8217 11.1577 84.7685 10.8401C85.5302 10.578 84.6018 10.0386 83.6556 10.3527ZM83.6713 96.7663C83.6112 96.7733 83.5579 97.0242 83.898 97.0179C84.9934 96.9968 84.683 96.6492 83.6713 96.7663ZM81.9499 0.269438C82.278 1.88681 77.8651 3.80001 78.0036 2.36984C78.0172 2.09117 79.609 2.45157 79.9183 2.00942C80.4606 1.13944 77.5203 1.74121 78.7863 0.576675C79.0161 0.356413 81.9395 0.165116 81.957 0.269783C81.9547 0.269673 81.9523 0.269555 81.9499 0.269438ZM83.038 74.5193C82.9846 74.528 82.9356 74.8716 82.9886 74.8797C84.2713 75.0596 84.3708 74.3672 83.038 74.5193ZM81.2247 111.368C81.111 111.388 81.0072 112.192 81.1121 112.218C83.2096 112.63 83.4258 111.005 81.2247 111.368ZM79.9501 51.2129C78.6579 50.8417 78.5029 50.3921 80.1201 50.082C80.0368 50.4551 80.0268 50.8327 79.9501 51.2129Z" fill="#FFF2DE"/>
<path d="M0.345763 245.373C1.36149 244.611 3.19079 244.275 4.67313 244.221C5.12461 244.208 5.19936 244.951 5.53165 244.968C6.2138 244.987 6.54321 244.469 7.24848 244.533C7.46569 244.564 7.68783 245.7 7.90661 245.709C9.12589 245.741 10.0342 245.042 11.1627 244.823C16.8713 243.68 22.1778 241.819 27.6918 239.947C29.1347 239.455 30.9699 239.368 32.5423 238.734C32.9429 238.573 33.3232 238.373 33.6658 238.114C33.8525 237.972 33.322 237.119 33.3282 237.027C33.4395 235.602 34.0528 237.528 34.5745 237.586C36.6162 237.825 38.4846 237.078 39.857 236.03C40.4524 235.575 38.9636 234.082 40.0959 234.784C40.1739 234.831 40.4436 235.87 40.674 235.888C41.201 235.926 41.9011 235.397 42.2493 235.329C42.9292 235.2 43.0267 235.144 43.6163 234.885C44.437 234.535 45.5902 234.581 46.3414 233.969C46.5007 233.835 45.804 232.964 46.017 232.662C46.2297 232.361 47.0434 232.084 47.4149 232.193C47.7863 232.302 48.0319 233.127 48.1604 233.282C49.2261 234.603 49.1473 232.123 49.2379 232.019C50.9351 230.167 53.2471 230.518 55.2165 229.587C56.6815 228.892 58.1171 227.739 59.5359 227.133C61.2536 226.402 62.9261 226.257 64.5188 225.388C64.6878 225.297 63.9379 224.244 64.1431 224.131C66.316 222.932 68.603 221.994 71.1904 221.708C71.4514 221.68 71.6464 222.827 71.9362 222.859C73.7062 223.03 76.8134 223.987 75.5197 219.208C76.5312 218.933 77.7329 218.573 78.9856 219.059C79.7927 219.371 79.8031 220.718 80.2331 219.934C80.3307 219.758 79.6755 218.89 79.8569 218.699C80.6227 217.897 81.7901 217.719 82.4722 216.778C82.6099 216.584 82.1432 215.748 82.1215 215.567C81.9619 214.097 83.7077 215.813 83.943 215.885C85.723 216.412 86.4068 215.535 87.5706 215.006C87.8408 214.883 86.9661 213.88 87.2059 213.721C88.4582 212.911 89.8834 212.343 91.4352 212.223C91.7816 212.2 91.9924 213.313 92.1824 213.352C93.0144 213.512 92.2479 211.588 93.0289 211.705C93.1924 211.727 93.5316 212.603 93.599 212.685C94.6566 213.965 93.9643 211.759 94.0329 211.67C94.879 210.492 96.6528 212.285 97.6144 211.441C97.7284 211.338 96.9111 210.418 97.2632 210.194C99.6024 208.693 102.371 207.706 105.239 207.362C105.686 207.306 105.802 208.239 105.874 208.326C107.019 209.675 106.266 207.487 106.352 207.349C107.063 206.309 108.82 207.595 108.287 204.811C112.863 203.633 116.332 200.226 121.531 200.408C121.596 200.407 122 201.469 122.127 201.464C123.666 201.418 122.65 199.958 122.531 197.622C122.496 197.038 124.288 199.05 124.428 199.194C124.944 199.722 125.469 201.338 125.598 201.426C126.641 202.102 124.099 197.151 124.868 196.772C124.896 196.769 125.246 197.738 125.355 197.798C125.696 197.986 125.715 197.524 126.066 197.745C126.874 198.257 128.212 200.612 128.213 198.859C128.211 198.633 126.688 195.864 127.445 195.658C127.749 195.578 128.936 194.936 129.361 194.955C129.788 194.974 130.005 196 130.048 196.028C131.542 196.793 131.453 197.458 132.79 199.02C134.126 200.575 131.913 196.39 131.868 195.823C131.825 195.258 132.984 195.925 133.318 196.191C133.652 196.457 133.732 197.138 133.974 197.262C135.567 198.07 133.362 194.946 133.348 194.117C133.305 192.157 135.464 195.006 136.302 194.978C136.529 194.97 136.025 194.327 136.158 194.179C136.693 193.598 137.547 194.398 137.869 193.122C137.921 192.914 137.604 190.719 138.678 191.917C138.832 192.09 139.06 192.952 139.426 192.991C139.978 193.047 140.796 192.859 141.126 192.371C141.369 192.011 140.347 190.907 140.969 191.101C141.246 191.187 141.268 192.116 141.756 192.216C142.244 192.316 143.116 191.847 143.435 191.658C143.755 191.467 143.091 190.576 143.086 190.496C143.058 190.04 143.479 189.247 143.54 189.218C144.355 188.776 145.205 188.493 146.054 188.275C148.284 187.684 150.578 187.468 152.36 186.087C152.564 185.933 151.898 184.977 151.924 184.943C152.47 184.129 153.243 187.17 154.235 187.82C153.108 185.768 153.613 185.989 154.023 185.495C154.219 185.256 153.673 184.516 153.655 184.422C153.408 183.006 154.464 184.463 154.695 184.753C155.536 185.826 155.113 184.269 155.687 184.981C156.26 185.684 156.459 187.058 156.965 186.782C156.729 185.963 155.359 184.205 155.585 183.692C156.408 181.772 159.868 181.919 161.126 181.458C162.336 181.026 162.665 180.676 163.47 180.591C164.919 180.439 163.716 179.24 164.119 178.181C164.515 177.123 166.048 180.834 166.564 181.532C167.079 182.229 166.774 181.39 167.129 181.734C167.485 182.078 167.48 182.744 167.872 182.733C168.25 182.73 168.399 180.908 168.069 180.065C167.382 178.271 166.05 176.727 167.185 176.902C167.25 176.913 167.61 177.914 167.837 177.91C169.66 177.826 171.136 177.049 172.902 176.846C173.146 176.819 173.562 177.93 173.711 177.925C175.257 177.884 173.84 176.431 173.359 174.171C174.707 176.758 175.981 178.076 176.875 177.552C177.427 177.229 176.668 176.202 176.537 175.229C176.497 174.936 177.318 175.455 177.074 174.902C176.259 173.104 174.759 171.464 176.095 171.65C176.155 171.661 176.608 172.641 176.775 172.612C177.854 172.425 176.86 170.633 177.614 169.836C178.203 169.212 180.146 169.385 181.044 168.977C182.942 171.647 183.299 170.453 182.212 168.441C182.777 168.129 183.221 167.619 183.887 167.482C184.113 167.435 184.606 168.256 184.691 168.319C186.027 169.304 184.853 167.423 184.896 167.274C185.469 165.702 187.483 166.124 187.382 163.967C187.379 163.889 185.854 162.2 187.276 163.134C187.375 163.198 187.762 164.266 188.293 163.859C188.821 163.457 190.59 163.403 190.487 161.99C190.469 161.68 189.7 160.274 190.56 160.489L190.553 160.497C190.645 160.52 190.755 160.562 190.886 160.626C191.071 160.716 191.497 161.215 191.822 161.4C192.859 161.988 191.305 160.285 192.954 161.386C194.608 162.48 196.154 162.976 195.84 161.351C195.833 161.302 194.667 159.883 194.898 159.682C195.262 159.368 196.01 159.132 196.348 158.758C196.509 158.58 195.583 157.912 195.597 157.867C196.253 156.256 197.779 156.115 199.294 155.16C199.573 154.986 199.088 153.26 200.396 153.656C201.829 154.089 205.366 158.428 205.48 156.394C205.528 155.578 200.99 150.127 204.405 151.842C205.267 149.639 208.012 149.488 208.613 147.021C208.641 146.911 207.452 145.313 207.633 145.166C207.904 144.951 208.695 145.457 208.909 145.325C209.714 144.851 209.891 143.854 210.451 143.199C210.531 143.105 210.619 143.018 210.717 142.941C211.014 142.705 211.593 143.471 211.949 143.188C212.301 142.91 211.631 141.81 212.488 141.809C213.14 141.811 215.264 143.307 215.903 143.097C214.149 141.283 214.482 141.026 214.548 140.031C214.561 139.838 213.836 139.317 213.811 139.194C213.694 138.675 214.383 139.021 214.23 138.482C214.193 138.353 213.595 137.732 213.532 137.591C212.969 136.369 214.847 137.251 215.171 137.409C216.405 138.002 215.792 137.037 216.409 137.147C217.023 137.259 217.06 138.094 217.581 138.022C218.659 137.872 219.393 136.993 220.08 136.412C220.349 136.177 219.39 135.498 219.41 135.444C219.761 134.723 221.14 135.121 219.906 133.146C224.269 137.189 219.853 132.417 221.445 132.581C221.572 132.596 223.52 134.612 223.557 135.132C223.596 135.649 222.649 135.323 222.752 136.096C222.775 136.278 224.102 138.62 224.151 138.791C224.526 140.132 221.627 137.112 221.446 136.965C219.481 135.4 220.858 137.981 220.854 138.252C220.821 139.506 219.876 139.588 219.783 140.558C219.717 141.191 221.582 143.202 221.253 143.401C220.174 144.052 217.186 141.621 218.663 144.816C218.979 145.498 221.256 147.461 218.964 146.41C218.82 146.343 216.825 145.283 217.512 146.523C217.599 146.68 218.216 147.298 218.222 147.395C218.25 148.037 217.559 147.743 217.464 148.31C217.384 148.786 217.343 149.387 216.981 149.673C216.913 149.727 216.833 149.769 216.739 149.796C216.386 149.9 214.936 149.053 214.543 148.884C213.414 148.394 214.43 150.046 213.244 149.269C212.054 148.487 210.918 146.616 209.765 146.502C211.368 148.11 212.989 149.784 214.59 151.411C213.431 152.481 211.819 153.087 210.787 154.301C210.66 154.453 211.678 155.156 211.565 155.34C211.086 156.116 209.919 156.074 209.527 156.982C209.227 157.688 209.616 159.15 209.333 159.916C207.14 158.451 207.006 159.867 206.276 160.289C206.021 160.438 205.531 159.945 205.228 159.935C204.098 159.908 206.005 161.234 206.122 161.635C206.62 163.346 202.806 159.818 202.168 160.675C202.134 160.718 203.667 163.125 203.727 163.311C204.13 164.519 202.961 162.718 202.554 162.85C201.81 163.09 201.005 162.977 201.036 164.122C201.05 164.455 201.912 166.054 200.629 165.466C200.461 165.389 199.82 164.735 199.748 164.733C198.499 164.751 200.568 166.748 200.928 167.783C201.29 168.816 199.32 168.008 198.793 167.731C197.435 167.011 198.556 167.063 198.463 166.949C197.391 165.568 197.215 166.185 196.815 166.393C196.561 166.162 196.333 165.967 196.133 165.805C196.131 165.807 196.124 165.815 196.122 165.818C194.682 164.654 194.662 165.252 196.386 166.639C196.574 166.789 196.634 166.482 196.748 166.418C196.751 166.415 196.759 166.406 196.762 166.403C196.778 166.394 196.796 166.39 196.815 166.393C196.882 166.476 196.946 166.557 197.007 166.636C197.003 166.639 196.995 166.649 196.992 166.651C198.515 168.652 198.222 169.295 195.926 168.088C194.81 167.496 194.037 166.269 193.651 167.397C193.471 167.909 194.981 169.144 195.038 169.834C195.159 171.42 192.914 171.063 192.311 171.993C192.09 172.333 193.087 172.865 192.958 173.126C192.606 173.83 191.602 173.648 191.305 174.433C191.28 174.505 192.121 175.251 191.956 175.409C190.691 176.639 189.053 177.011 187.614 178.037C186.93 178.528 186.017 179.916 185.235 180.291C183.848 180.979 181.464 180.581 180.613 181.569C180.06 182.207 180.789 183.063 180.881 183.896C181.058 185.511 178.684 183.862 178.333 183.595C178.324 183.586 178.794 183 178.18 182.701C177.384 181.79 178.338 183.587 178.333 183.595C178.108 183.424 176.808 183.895 176.665 184.222C176.591 184.399 177.194 185.269 177.145 185.344C176.044 187.072 174.503 188.244 172.672 188.686C172.633 188.683 172.109 187.625 172.025 187.631C170.806 187.701 170.941 189.268 170.55 190.451C170.148 191.639 169.435 191.693 168.017 190.154C167.538 190.696 166.294 190.339 165.564 190.108C164.832 189.878 165.823 191.95 165.801 192.012C165.123 194.003 163.779 193.218 162.296 193.748C161.62 193.98 160.433 194.958 159.854 195.531C159.394 195.99 158.816 195.679 158.45 196.247C158.4 196.324 158.93 197.201 158.926 197.247C158.89 198.634 158.05 196.259 157.729 195.921C156.556 194.694 155.92 194.046 155.532 195.093C155.442 195.333 156.551 198.8 156.33 199.145C156.039 199.587 155.621 198.355 155.328 198.849C155.303 198.89 155.662 199.6 155.382 199.699C154.394 200.054 153.229 200.278 152.154 200.708C151.885 200.814 151.623 200.935 151.372 201.077C151.207 201.167 151.979 202.194 151.749 202.342C150.663 203.041 149.369 203.625 147.992 203.643C147.649 203.645 147.433 202.766 147.257 202.56C146.188 201.317 146.672 203.649 146.603 203.732C145.059 205.724 142.544 204.634 140.883 206.556C140.793 206.665 140.994 209.321 139.677 207.606C139.588 207.492 138.247 205.733 138.558 207.233C138.578 207.327 139.311 208.211 138.84 208.316C138.368 208.421 138.013 209.426 136.883 208.613C136.53 208.356 135.149 206.623 135.363 208.439C135.381 208.564 136.254 212.481 134.764 210.214C134.52 209.841 133.318 207.258 133.301 208.893C133.299 209.209 133.809 209.667 133.65 210.186C133.41 210.985 132.419 210.621 132.356 212.065C132.347 212.32 132.737 214.281 131.72 213.146C131.56 212.968 131.252 212.06 131.009 212.061C129.84 212.066 129.171 213.102 127.934 212.975C127.498 212.931 126.993 211.467 126.463 211.268C125.935 211.069 125.045 211.063 124.998 211.868C124.946 212.677 126.419 214.683 125.962 215.125C123.965 217.051 120.984 216.909 118.516 217.882C118.152 218.025 118.827 218.67 118.318 218.938C116.435 219.93 113.498 222.278 111.018 221.415C109.038 220.72 110.209 218.886 108.93 218.834C108.314 218.812 109.031 221.631 108.952 221.769C108.194 223.152 106.836 222.41 105.967 223.263C105.787 223.44 106.503 224.375 106.345 224.514C105.808 224.998 104.925 224.855 104.368 225.23C104.119 225.401 104.554 226.17 104.277 226.229C103.621 226.378 102.938 226.298 102.002 225.834C101.916 225.792 101.791 224.634 101.336 224.809C100.603 225.095 99.3688 224.788 98.9233 225.94C98.7927 226.285 99.6626 228.102 98.5367 227.102C98.301 226.893 97.3841 224.649 97.6922 226.823C97.7424 227.185 97.9569 230.214 96.666 228.82C96.3259 228.453 95.1276 226.833 94.9728 227.254C94.9551 227.318 95.5846 228.216 95.3899 228.427C94.6955 229.156 93.7562 229.482 93.033 230.208C92.8408 230.404 93.6747 231.245 93.3726 231.505C92.5447 232.22 91.224 232.541 90.1396 232.675C89.7386 232.723 89.5731 231.772 89.5042 231.693C88.3882 230.408 89.1139 232.519 89.0366 232.7C88.545 233.797 87.4548 233.166 86.808 233.784C86.6281 233.951 87.2368 234.831 87.2356 234.937C87.1981 235.977 86.7001 234.11 86.3329 234.054C85.3 233.894 84.4823 234.382 83.7518 234.883C83.4852 235.068 84.3406 236.016 84.0953 236.169C82.6516 237.098 81.0231 237.749 79.2285 237.859C78.8911 237.877 78.6606 236.941 78.5089 236.775C77.4535 235.608 77.7509 237.746 77.6996 237.988C77.467 239.091 76.8728 238.45 76.3869 238.855C74.0376 240.837 70.5098 241.904 67.8203 242.8C64.3549 243.955 61.3744 244.367 58.3414 246.044C58.149 246.149 58.8815 247.193 58.7215 247.298C56.5937 248.628 54.1799 249.21 52.1081 250.566C51.9317 250.678 52.7016 251.633 52.4353 251.849C51.8925 252.299 51.0903 252.597 50.3209 252.533C49.9467 252.503 49.9195 251.392 49.552 251.381C48.7092 251.347 47.8904 251.628 47.2479 252.131C46.9743 252.348 47.945 253.243 47.5501 253.439C45.2671 254.595 42.9494 255.829 40.2137 255.992C39.7601 256.024 39.2981 256.028 38.8254 255.998C38.5921 255.983 37.422 253.796 37.2176 254.406C37.4661 255.047 37.7951 255.784 38.0796 256.461C34.2877 258.575 29.9863 259.533 25.9403 261.148C25.7727 261.215 26.5812 262.293 26.2598 262.429C24.3397 263.243 22.6538 264.367 20.1936 264.002C19.945 263.969 19.1349 261.808 18.6997 262.373C18.6219 262.475 17.9032 263.116 17.8601 263.677C17.859 263.76 18.4382 264.683 18.1698 264.831C16.6204 265.666 14.8129 266.158 12.9165 266.224C12.6151 266.231 12.457 265.057 12.2401 265.052C10.6813 265.032 9.52089 266.439 7.73937 265.998C6.53943 265.696 6.20128 263.708 5.04304 262.049C4.90609 261.808 4.23243 261.986 3.84925 260.913C2.97306 258.197 2.24588 255.152 1.26045 252.273C1.17162 251.959 1.03687 252.006 1.25226 251.844C1.41317 251.77 1.52148 251.582 2.69189 251.372C2.84405 251.33 2.76981 251.28 2.5157 251.234C2.28079 251.185 1.84683 251.171 1.74524 251.121C1.56263 251.078 1.37194 251.039 1.2743 250.976C1.15045 250.917 1.04271 250.85 0.966159 250.767C0.880059 250.733 0.693669 250.623 0.673775 250.408C0.633132 250.199 0.64251 249.916 0.593056 249.649C0.524937 249.28 0.065043 248.218 0.00527072 247.736C-0.0545738 247.254 0.404814 248.118 0.443873 247.509C0.482701 246.891 -0.0947001 245.707 0.345763 245.373ZM162.281 189.079C161.334 188.327 163.118 191.95 163.156 190.844C163.155 190.786 162.329 189.115 162.281 189.079ZM209.64 150.962C207.911 150.186 209.489 152.322 210.792 152.954C212.093 153.585 210.164 151.198 209.64 150.962ZM213.374 145.296C212.79 145.119 213.014 145.619 213.5 146.222C213.866 146.674 214.378 147.185 214.803 147.514C215.287 147.887 215.659 148.024 215.573 147.572C215.559 147.493 213.463 145.322 213.374 145.296ZM7.0464 260.707C7.02448 260.659 6.62012 260.76 6.62722 260.814C6.88124 262.09 7.69849 261.885 7.0464 260.707ZM217.087 139.654C216.379 139.26 216.516 140.371 217.394 140.862C218.099 141.258 217.964 140.147 217.087 139.654ZM137.189 196.738C137.155 196.688 136.874 196.765 137.029 197.068C137.529 198.043 137.751 197.59 137.189 196.738ZM225.329 132.015C223.943 132.945 220.035 130.092 221.766 129.274C222.078 129.127 222.228 130.877 222.826 130.918C223.915 130.993 222.343 128.422 223.983 129.102C224.28 129.229 225.414 131.97 225.331 132.022C225.33 132.02 225.33 132.017 225.329 132.015ZM159.803 184.9C159.77 184.857 159.393 184.994 159.409 185.046C159.803 186.285 160.565 186.008 159.803 184.9ZM121.059 201.869C120.987 201.777 120.112 202.087 120.133 202.193C120.624 204.287 122.394 203.667 121.059 201.869ZM181.108 169.039C180.685 167.751 180.975 167.345 182.21 168.441C181.838 168.615 181.49 168.858 181.108 169.039Z" fill="#FFF2DE"/>
<path d="M19.3589 108.91C20.7658 107.906 23.0771 107.251 24.945 106.945C25.5353 106.845 25.5856 107.611 26.0001 107.574C26.8011 107.505 27.32 106.872 28.1555 106.842C28.4396 106.832 28.6319 107.996 28.92 107.962C30.4415 107.794 31.6089 106.915 33.04 106.495C38.0185 105.018 42.7582 103.213 47.5745 101.266C49.6146 100.448 51.7384 99.5572 53.8309 98.6838C56.1376 97.7163 59.2403 97.2987 61.3241 95.7324C61.5684 95.5479 60.9567 94.7429 60.9706 94.6438C61.2004 93.1178 61.8389 95.0467 62.4754 95.0217C65.005 94.9142 67.3329 93.8238 69.1309 92.4674C69.8912 91.8893 68.1475 90.564 69.4991 91.116C69.5922 91.1524 69.8625 92.2015 70.1445 92.1831C70.7796 92.1413 71.7047 91.4523 72.1361 91.3239C72.9874 91.0724 73.1116 90.9964 73.8559 90.6257C74.8859 90.1228 76.3155 89.9749 77.29 89.2009C77.4965 89.033 76.6921 88.2298 76.9766 87.8749C77.2618 87.5201 78.2848 87.0936 78.7261 87.1525C79.171 87.2096 79.4234 88.0376 79.5711 88.1809C80.8055 89.3962 80.8853 86.7852 81.0054 86.6593C83.2079 84.4337 86.0736 84.4085 88.5596 83.1107C90.4386 82.1267 92.2624 80.6931 94.0798 79.8124C96.2541 78.7632 98.3337 78.341 100.365 77.1682C100.58 77.0456 99.7344 76.0503 99.9956 75.8983C102.771 74.2843 105.657 72.9359 108.891 72.2206C109.215 72.1502 109.366 73.3324 109.721 73.3214C111.884 73.2304 115.644 73.7617 114.439 68.9013C115.71 68.4549 117.219 67.8917 118.734 68.2104C119.706 68.4175 119.607 69.8414 120.202 68.9467C120.337 68.7464 119.601 67.9265 119.84 67.6977C120.837 66.7397 122.316 66.3634 123.232 65.2681C123.418 65.0428 122.913 64.2279 122.901 64.04C122.822 62.5114 124.844 64.0591 125.127 64.1015C127.278 64.3943 128.201 63.3643 129.689 62.6315C130.032 62.4629 129.042 61.5291 129.351 61.3259C130.961 60.2889 132.779 59.478 134.719 59.1233C135.152 59.0473 135.308 60.1965 135.54 60.2101C136.555 60.2593 135.786 58.3323 136.733 58.3494C136.931 58.3508 137.269 59.2294 137.344 59.3064C138.529 60.5133 137.892 58.271 137.985 58.1668C139.151 56.7968 141.162 58.4521 142.442 57.4232C142.592 57.2989 141.674 56.4366 142.129 56.1518C144.932 54.3935 148.136 53.0624 151.425 52.3027C151.726 52.231 152.024 52.1651 152.321 52.1051C152.884 51.99 152.921 52.9637 153.001 53.0465C154.268 54.3331 153.575 52.1148 153.696 51.9591C154.709 50.7678 156.7 51.9399 156.409 49.0415C162.248 47.2958 167.028 43.2369 173.826 43.3156C173.91 43.3157 174.16 44.4276 174.323 44.4243C176.335 44.4099 175.312 42.8815 176.315 40.4005C176.593 39.7584 178.519 42.0923 178.598 42.3124C179.127 42.9938 178.682 44.6934 178.837 44.8239C179.266 45.3582 179.406 44.2176 180.341 43.1872C180.834 42.7064 181.529 42.224 182.568 42.4382C183.593 42.5968 184.781 43.8455 184.971 44.9977C184.99 45.1254 183.867 44.8016 183.846 45.1685C183.723 46.1789 184.055 46.6541 183.688 47.0428C183.661 47.0688 183.633 47.0934 183.603 47.1168C182.632 47.8826 180.153 47.673 181.425 48.9864C181.589 49.1624 184.731 49.6832 184.271 50.8089C184.094 51.2612 183.546 53.1227 183.18 53.5233C182.815 53.9465 181.975 53.2699 181.92 53.2926C180.191 54.1317 179.85 53.4268 177.748 53.3743C175.667 53.2759 180.156 54.7785 180.552 55.2264C180.95 55.663 179.557 56.1939 179.114 56.2643C178.668 56.3468 178.174 55.8341 177.893 55.9525C176.054 56.7337 179.855 57.3832 180.381 58.0959C181.624 59.7833 178.051 59.2583 177.353 60.0594C177.167 60.2685 177.988 60.3709 177.968 60.6187C177.866 61.6197 176.642 61.7152 177.151 63.1067C177.24 63.3182 178.835 64.9753 177.197 64.8793C176.96 64.8662 176.241 64.3198 175.905 64.6142C175.396 65.0669 174.804 65.979 174.815 66.704C174.824 67.237 176.364 67.2951 175.719 67.6696C175.433 67.8339 174.847 67.0552 174.373 67.3922C173.9 67.7265 173.425 68.9353 173.265 69.385C173.1 69.8456 174.21 70.0296 174.263 70.0946C174.555 70.4837 174.67 71.555 174.639 71.6243C173.588 74.3102 171.724 76.4749 170.319 78.8748C169.711 79.9034 169.157 81.0635 168.843 82.2557C168.758 82.5654 169.899 82.8319 169.897 82.8839C169.902 84.0803 167.439 82.0626 166.191 82.3582C168.38 83.1905 167.807 83.4437 167.742 84.2354C167.71 84.6215 168.62 84.8011 168.691 84.8688C169.734 85.9187 167.951 85.5612 167.579 85.5063C166.208 85.3043 167.49 86.3154 166.577 86.1732C165.667 86.0405 164.686 85.0005 164.411 85.6717C165.096 86.1942 167.318 86.5759 167.421 87.2247C167.795 89.7175 164.659 92.5924 163.806 94.09C162.963 95.5637 162.889 96.1159 162.21 96.9076C160.993 98.3148 162.745 98.3653 162.979 99.677C163.21 100.995 159.773 98.8902 158.922 98.6903C158.074 98.4885 158.813 99.0024 158.301 98.9924C157.791 98.9818 157.428 98.3576 157.079 98.7085C156.737 99.0466 157.634 100.798 158.389 101.31C159.991 102.391 162.047 102.678 160.914 103.508C160.848 103.555 159.979 102.923 159.773 103.126C158.186 104.72 157.25 106.718 155.746 108.351C155.537 108.577 154.573 107.867 154.439 107.993C153.038 109.317 155.102 109.519 156.714 111.285C154.137 109.911 152.295 109.671 151.737 110.89C151.401 111.621 152.617 112.017 153.23 112.847C153.415 113.097 152.388 113.259 152.894 113.595C154.545 114.696 156.764 115.091 155.41 115.997C155.348 116.036 154.447 115.426 154.303 115.591C153.366 116.659 155.172 117.632 154.811 119.059C154.526 120.182 152.563 121.536 151.852 122.639C148.87 121.287 149.056 122.716 150.916 124.092C150.493 124.818 150.241 125.701 149.625 126.321C149.413 126.536 148.622 125.982 148.514 125.973C146.824 125.819 148.682 127.047 148.686 127.25C148.658 129.378 146.473 130.198 147.203 132.564C147.229 132.649 149.265 133.67 147.543 133.456C147.425 133.439 146.731 132.451 146.299 133.228C145.865 134.007 144.071 135.043 144.538 136.59C144.649 136.964 146.031 138.402 144.466 138.372C144.254 138.366 143.694 138.02 143.314 137.98C142.104 137.855 144.121 138.978 142.158 138.586C140.195 138.194 138.487 138.436 139.214 140.119C139.233 140.172 140.779 141.18 140.594 141.527C140.294 142.083 139.593 142.726 139.34 143.326C139.219 143.613 140.334 143.891 140.331 143.948C140.058 146.123 138.535 147.067 137.221 148.943C136.978 149.288 137.908 150.993 136.471 151.222C134.896 151.478 130.186 148.398 130.578 150.774C130.73 151.735 136.756 155.529 132.828 155.375C132.503 158.332 129.737 159.952 129.767 163.061C129.768 163.201 131.401 164.368 131.255 164.631C131.034 165.019 130.095 164.869 129.911 165.135C129.114 166.244 129.342 167.665 128.708 168.789C128.469 169.216 127.67 168.674 127.385 169.183C127.101 169.694 128.087 170.556 127.216 171.027C126.554 171.381 123.976 170.882 123.382 171.481C125.676 172.535 125.408 173.009 125.624 174.161C125.667 174.383 126.55 174.558 126.612 174.682C126.881 175.19 126.082 175.194 126.395 175.703C126.47 175.826 127.255 176.18 127.361 176.301C128.288 177.339 126.134 177.411 125.76 177.421C124.337 177.467 125.243 178.188 124.588 178.418C123.933 178.647 123.646 177.74 123.14 178.123C122.095 178.914 121.622 180.319 121.11 181.371C120.911 181.792 122.091 181.97 122.087 182.041C121.961 183.042 120.448 183.43 122.324 184.851C116.64 183.051 122.613 185.615 120.969 186.391C120.837 186.451 118.222 185.437 118.015 184.889C117.81 184.342 118.867 184.121 118.516 183.333C118.434 183.146 116.354 181.363 116.252 181.201C115.457 179.931 119.33 181.526 119.558 181.579C122.03 182.128 119.836 180.102 119.76 179.792C119.411 178.374 120.347 177.72 120.155 176.579C120.035 175.833 117.555 174.661 117.833 174.242C118.757 172.849 122.484 173.884 120.086 171.115C119.575 170.523 116.702 169.606 119.341 169.474C119.507 169.466 121.837 169.534 120.799 168.512C120.668 168.384 119.869 168.03 119.836 167.923C119.633 167.211 120.421 167.153 120.37 166.449C120.317 165.747 120.166 164.864 120.724 164.34C121.059 164.023 122.768 164.187 123.214 164.163C124.496 164.106 123.028 162.777 124.443 163.015C125.866 163.254 127.518 164.76 128.727 164.265C126.667 163.31 124.572 162.289 122.509 161.31C123.422 159.456 124.919 157.896 125.669 155.963C125.76 155.723 124.539 155.467 124.607 155.196C124.899 154.062 126.111 153.48 126.283 152.239C126.414 151.274 125.644 149.826 125.747 148.795C128.363 149.304 128.146 147.622 128.788 146.763C129.012 146.46 129.635 146.766 129.948 146.618C131.116 146.051 128.83 145.544 128.611 145.148C127.675 143.458 132.463 145.477 132.901 144.176C132.926 144.107 130.753 142.177 130.647 141.992C129.936 140.823 131.58 142.266 131.965 141.903C132.668 141.242 133.523 140.946 133.203 139.669C133.106 139.295 131.824 137.932 133.285 137.931C133.476 137.931 134.295 138.342 134.369 138.307C135.646 137.634 133.03 136.44 132.401 135.455C131.774 134.469 133.988 134.374 134.596 134.415C136.166 134.528 135.007 135.048 135.13 135.13C136.573 136.139 136.595 135.355 136.956 134.903C139.566 135.974 139.728 135.193 137.319 134.432C137.055 134.35 137.119 134.853 136.956 134.903C134.627 133.332 134.65 132.406 137.395 132.596C138.681 132.685 139.802 133.642 139.874 132.207C139.909 131.552 138.038 130.981 137.773 130.273C137.171 128.653 139.464 127.952 139.722 126.666C139.815 126.202 138.661 126.182 138.69 125.85C138.765 124.971 139.791 124.624 139.755 123.7C139.75 123.615 138.659 123.332 138.75 123.09C139.44 121.216 140.774 119.966 141.634 118.073C142.046 117.167 142.202 115.301 142.735 114.401C143.644 112.861 146.02 111.489 146.272 109.949C146.44 108.946 145.339 108.685 144.818 107.988C143.81 106.635 146.803 106.374 147.254 106.362C147.269 106.362 147.165 107.246 147.871 107.062C149.067 107.301 147.255 106.373 147.254 106.362C147.543 106.361 148.474 104.88 148.415 104.487C148.383 104.271 147.377 103.939 147.379 103.835C147.431 101.38 148.111 99.1768 149.505 97.2366C149.541 97.2078 150.595 97.7398 150.667 97.6663C151.684 96.6571 150.713 95.2846 150.376 93.9231C150.038 92.5678 150.649 91.8898 152.771 92.0955C152.878 91.2176 154.166 90.5134 154.948 90.0835C155.725 89.6643 153.661 88.6548 153.644 88.5806C153.067 86.2836 154.723 85.7785 155.687 84.0876C156.165 83.2483 156.583 81.4637 156.768 80.4124C156.905 79.5941 157.578 79.3954 157.562 78.5718C157.561 78.4609 156.583 78.1458 156.559 78.1018C155.77 76.8523 157.901 78.2172 158.378 78.2388C160.114 78.3179 161.049 78.3359 160.772 77.0602C160.71 76.7634 157.694 74.6772 157.674 74.1947C157.657 73.6534 158.478 74.1127 158.664 73.8157C158.694 73.7672 158.709 73.7001 158.703 73.6079C158.701 73.5498 157.967 73.242 158.148 72.9116C158.974 71.392 160.127 69.8904 160.771 68.1924C160.86 67.9677 159.578 67.7523 159.686 67.4207C160.202 65.8427 160.953 64.2083 162.122 62.9671C162.415 62.6608 163.131 63.2351 163.406 63.2586C165.072 63.3952 163.234 61.8214 163.245 61.6829C163.363 58.557 166.15 57.3061 166.324 54.2279C166.333 54.0512 164.485 52.0192 166.653 52.3008C166.795 52.3256 169.013 52.6135 167.798 51.6459C167.721 51.5868 166.566 51.4776 166.872 51.0026C167.189 50.4963 166.797 49.4301 168.202 49.1567C168.641 49.0787 170.88 49.2561 169.453 48.0872C169.368 47.9686 165.919 45.9604 168.552 46.5272C168.982 46.6297 171.738 47.3747 170.448 46.5246C170.189 46.3876 169.546 46.3485 169.195 46.1052C168.831 45.8679 169.012 45.9541 168.815 46.0254C168.752 46.0765 168.349 46.378 168.311 48.5183C168.383 48.9973 167.892 51.1139 170.322 54.4232C172.902 57.7401 176.556 58.5904 177.747 57.966C177.959 57.8748 177.899 57.5706 177.957 57.2957C178.004 57.0175 178.207 56.7826 178.669 56.7478C179.628 56.6417 179.892 56.5034 180.013 56.4685C180.136 56.4233 180.08 56.4422 179.987 56.4745C179.77 56.5446 179.362 56.6657 178.783 56.5213C178.379 56.4195 178.039 54.9078 177.503 54.6655C176.991 54.4138 176.009 54.3708 175.826 55.2045C175.644 56.0372 177.048 58.1095 176.495 58.549C174.046 60.4879 170.501 60.5417 167.415 61.7679C166.953 61.9523 167.691 62.5721 167.047 62.8969C164.781 64.0401 161.25 66.5916 158.359 66.327C158.211 66.3104 158.064 66.286 157.919 66.2533C155.592 65.742 157.189 63.682 155.638 63.7736C154.889 63.8222 155.458 66.7214 155.358 66.8713C154.334 68.4008 152.701 67.8095 151.579 68.8087C151.343 69.0181 152.131 69.9137 151.923 70.0806C151.214 70.6629 150.147 70.6254 149.44 71.0899C149.121 71.3021 149.582 72.0565 149.238 72.1551C148.413 72.4026 147.582 72.41 146.485 72.0416C146.384 72.0084 146.333 70.8034 145.763 71.0484C144.84 71.4483 143.338 71.3005 142.702 72.5721C142.511 72.9543 143.42 74.7529 142.123 73.854C141.851 73.6669 140.926 71.4218 141.104 73.6805C141.131 74.0568 141.148 77.2183 139.68 75.9295C139.294 75.59 137.96 74.0498 137.73 74.5184C137.702 74.5886 138.4 75.4466 138.139 75.6995C137.235 76.5626 136.058 77.0398 135.095 77.9186C134.845 78.1521 135.795 78.9222 135.406 79.2382C134.344 80.1056 132.674 80.6486 131.347 80.9416C130.852 81.05 130.725 80.0706 130.647 79.9973C129.383 78.8028 130.101 80.9277 129.991 81.1302C129.289 82.366 128.009 81.8567 127.168 82.604C126.934 82.8081 127.611 83.6475 127.601 83.7588C127.472 84.8632 127.01 82.9647 126.563 82.961C125.304 82.9473 124.253 83.589 123.324 84.2244C122.983 84.4593 123.959 85.3336 123.646 85.5319C121.798 86.7312 119.742 87.6691 117.538 88.0552C117.123 88.1255 116.911 87.1721 116.737 87.0195C115.53 85.948 115.731 88.1628 115.649 88.4265C115.277 89.6289 114.586 89.048 113.967 89.5462C110.943 91.9969 106.512 93.6845 103.158 95.0473C98.7927 96.8262 95.1407 97.7157 91.27 99.9893C91.0234 100.133 91.8571 101.114 91.652 101.252C88.9861 102.978 85.9667 103.991 83.3234 105.765C83.1032 105.91 83.9862 106.793 83.6493 107.062C82.9616 107.622 81.9621 108.065 81.0203 108.123C80.562 108.153 80.5959 106.987 80.1445 107.036C79.0888 107.149 78.0875 107.569 77.2739 108.202C76.9279 108.474 78.0642 109.259 77.5713 109.528C74.1936 111.4 70.9142 113.313 66.7235 113.669C66.4327 113.695 65.1031 111.595 64.8092 112.276C65.0808 112.908 65.4472 113.627 65.7616 114.291C62.7205 116.106 59.4773 117.457 56.1864 118.795C54.2114 119.6 52.3087 120.365 50.3922 121.245C50.1748 121.345 51.1208 122.342 50.7037 122.542C48.3081 123.689 46.1556 125.138 43.1269 125.151C42.8216 125.156 41.9423 123.02 41.372 123.682C41.2732 123.8 40.3355 124.591 40.2598 125.182C40.2544 125.268 40.9173 126.144 40.5807 126.34C38.612 127.464 36.3868 128.248 34.0321 128.621C33.6475 128.681 33.523 127.474 33.2467 127.507C31.3111 127.737 29.8512 129.369 27.7043 129.17C26.2502 129.035 25.8999 127.028 24.5383 125.483C24.3495 125.266 23.5665 125.529 23.1118 124.482C22.0585 121.83 21.2329 118.803 20.0533 115.997C19.9453 115.69 19.7481 115.769 19.9153 115.606C20.0673 115.539 20.1203 115.29 21.6814 115.04C21.9038 114.998 21.7986 114.944 21.4199 114.907C21.246 114.888 20.9754 114.885 20.807 114.879C20.6885 114.865 20.5569 114.854 20.4261 114.844C20.2822 114.838 20.197 114.821 20.1185 114.801C20.0371 114.782 19.9554 114.762 19.8781 114.74C19.7671 114.685 19.6464 114.626 19.5696 114.547C19.4939 114.514 19.3339 114.404 19.357 114.17C19.3541 113.945 19.4007 113.641 19.3583 113.368C19.2925 112.994 18.7277 111.978 18.6983 111.477C18.681 110.971 19.2377 111.787 19.3418 111.135C19.4291 110.482 18.7808 109.334 19.3589 108.91ZM158.418 88.2169C159.687 88.0692 156.027 86.3609 156.632 87.3868C156.666 87.4384 158.355 88.2257 158.418 88.2169ZM127.696 159.147C129.664 159.106 127.503 157.519 126.007 157.499C124.512 157.479 127.099 159.16 127.696 159.147ZM125.362 167.589C127.042 167.268 121.874 164.799 122.506 166.226C122.541 166.308 125.264 167.608 125.362 167.589ZM27.044 123.789C27.0216 123.74 26.5085 123.913 26.5199 123.965C26.7815 125.253 27.8 124.911 27.044 123.789ZM123.159 176.019C123.991 176.055 123.531 174.89 122.497 174.844C121.665 174.807 122.125 175.974 123.159 176.019ZM175.518 59.3383C175.576 59.3548 175.767 59.0315 175.45 58.9081C174.423 58.5246 174.519 59.1071 175.518 59.3383ZM117.276 189.394C118.351 187.509 123.204 188.238 121.761 190.168C121.499 190.518 120.756 188.717 120.146 189.038C119.033 189.628 121.478 191.437 119.612 191.715C119.272 191.764 117.205 189.497 117.272 189.388C117.273 189.39 117.275 189.392 117.276 189.394ZM163.009 89.825C163.063 89.8343 163.316 89.3829 163.273 89.3507C162.211 88.5806 161.7 89.4892 163.009 89.825ZM172.863 44.8547C172.775 44.7644 171.634 45.1038 171.617 45.2262C171.831 47.3973 174.145 46.7132 172.863 44.8547ZM151.764 122.622C152.716 123.657 152.582 124.334 150.919 124.09C151.225 123.612 151.464 123.102 151.764 122.622Z" fill="#FFF2DE"/>
<path d="M13.7036 69.1312C13.1483 68.9378 14.2656 68.9621 15.1813 69.1363C15.4686 69.1924 15.6226 69.9023 15.8442 69.9658C16.2729 70.0906 16.4588 69.6323 16.9182 69.7976C17.0765 69.8536 17.3763 70.9577 17.5338 70.9918C18.3746 71.1788 18.9136 70.63 19.6779 70.557C23.541 70.1528 27.1037 68.9727 30.8181 67.8073C32.0221 67.4312 33.8537 67.7069 34.8743 66.7275C34.9863 66.6154 34.4811 65.7537 34.4718 65.6674C34.3396 64.3415 35.0632 66.2211 35.4441 66.3362C36.9815 66.775 38.1803 66.3079 39.0815 65.4541C39.4419 65.0986 38.1604 63.5198 39.0699 64.3154C39.1323 64.3688 39.4769 65.3749 39.6436 65.4204C40.02 65.5219 40.4559 65.1051 40.7065 65.0784C41.189 65.0331 41.2626 64.9862 41.6523 64.8136C42.1768 64.5917 43.0269 64.7677 43.4994 64.2763C43.5989 64.1685 42.9687 63.2694 43.0854 63.0092C43.1339 62.9016 43.2585 62.81 43.409 62.7494C43.6109 62.669 43.8642 62.6514 44.0281 62.7389C44.3078 62.8881 44.6035 63.6904 44.7178 63.852C45.6756 65.2194 45.2807 62.8792 45.3334 62.7913C46.3359 61.2445 48.0407 61.8669 49.3571 61.2292C50.3145 60.7621 51.2323 59.8435 52.1701 59.4564C53.2988 58.9943 54.5516 59.0409 55.5627 58.44C55.6724 58.3765 54.9847 57.2945 55.1176 57.2146C56.5458 56.3595 58.068 55.7767 59.936 55.8268C60.1242 55.8326 60.4183 56.9326 60.6356 56.9985C61.9579 57.3788 64.3304 58.6813 62.757 54.0337C63.4669 53.9005 64.2893 53.7195 65.2648 54.3366C65.894 54.7332 66.0826 55.9957 66.2905 55.3169C66.3381 55.165 65.7443 54.2676 65.851 54.1124C66.2981 53.461 67.1459 53.4345 67.513 52.6433C67.5862 52.4803 67.1346 51.637 67.0943 51.4652C66.7784 50.0689 68.2778 51.902 68.4588 52.0002C69.8234 52.725 70.2153 51.9879 71.0015 51.6393C71.1801 51.5608 70.4111 50.5072 70.5628 50.3902C71.3574 49.7989 72.3224 49.4519 73.4474 49.5376C73.699 49.5594 73.9987 50.6299 74.1435 50.6906C74.7758 50.9465 73.9662 49.0433 74.5455 49.2575C74.6669 49.3001 75.0311 50.1641 75.091 50.2493C76.0302 51.5871 75.2312 49.4324 75.2691 49.3578C75.7261 48.3676 77.2609 50.2756 77.8561 49.6094C77.9263 49.5275 77.2065 48.5605 77.4357 48.3954C78.9431 47.2967 80.8402 46.7334 82.8872 46.7887C83.2038 46.7963 83.4138 47.6841 83.4778 47.7749C84.4889 49.1888 83.6498 47.0427 83.6945 46.9246C84.0736 46.0468 85.5322 47.478 84.7797 44.8013C87.964 44.3029 90.0411 41.5782 93.8789 42.4296C93.9266 42.4379 94.3603 43.4849 94.4533 43.497C95.5732 43.6564 94.6351 42.1583 94.2442 39.9561C94.1461 39.4031 95.7108 41.5275 95.8321 41.6799C96.2771 42.2428 96.8744 43.8239 96.9799 43.9235C97.8281 44.6956 95.3209 39.7269 95.8336 39.4741C95.8537 39.4746 96.2363 40.4277 96.3242 40.4981C96.5987 40.7198 96.5528 40.2892 96.8391 40.5417C97.4983 41.1274 98.7936 43.5041 98.5628 41.865C98.5307 41.6533 97.0572 38.86 97.5801 38.7701C97.7881 38.7376 98.5674 38.296 98.8834 38.3691C99.1987 38.4423 99.491 39.4318 99.5265 39.4635C100.726 40.3741 100.74 40.9877 101.921 42.6271C103.098 44.2596 100.934 40.0508 100.826 39.5155C100.719 38.9814 101.655 39.7589 101.935 40.0514C102.215 40.3441 102.362 40.992 102.556 41.1402C103.834 42.1036 101.809 38.8908 101.693 38.1113C101.421 36.2646 103.346 39.2296 103.957 39.3134C104.121 39.3361 103.669 38.6678 103.746 38.5466C104.058 38.0761 104.803 38.9305 104.861 37.7842C104.871 37.5972 104.348 35.5044 105.291 36.7665C105.426 36.9488 105.705 37.7859 105.979 37.8698C106.389 37.9967 106.981 37.9195 107.153 37.5097C107.278 37.2076 106.392 36.0372 106.866 36.3033C107.077 36.4225 107.22 37.2914 107.586 37.452C107.95 37.6132 108.524 37.2908 108.737 37.1543C108.948 37.0175 108.345 36.0961 108.33 36.0211C108.255 35.5885 108.455 34.9036 108.494 34.8861C110.372 33.8173 112.942 34.61 114.558 33.1386C114.686 33.0246 114.08 32.0379 114.094 32.0098C114.388 31.328 115.337 34.2755 116.143 35.0231C115.061 32.9482 115.46 33.2246 115.698 32.822C115.813 32.626 115.322 31.8581 115.297 31.7673C114.944 30.4084 115.902 31.9176 116.107 32.2218C116.863 33.3404 116.349 31.8325 116.857 32.5791C117.361 33.3197 117.678 34.629 118.01 34.4474C117.737 33.6489 116.521 31.8079 116.623 31.363C117.003 29.6833 119.596 30.3235 120.448 30.1046C121.306 29.8823 121.491 29.6196 122.08 29.6677C123.145 29.7548 122.128 28.4454 122.314 27.5269C122.501 26.6075 124.01 30.3164 124.462 31.0511C124.912 31.7861 124.603 30.9539 124.901 31.3332C125.199 31.7125 125.26 32.3324 125.55 32.3874C125.842 32.4415 125.744 30.7888 125.423 29.9462C124.743 28.1611 123.605 26.4959 124.471 26.8526C124.521 26.8743 124.88 27.8682 125.049 27.9034C126.379 28.1515 127.417 27.6983 128.712 27.8597C128.891 27.8833 129.285 28.9914 129.395 29.017C130.541 29.2871 129.378 27.663 128.86 25.4797C130.043 28.1434 131.073 29.6227 131.697 29.3359C132.072 29.1644 131.448 28.0537 131.293 27.1312C131.246 26.8533 131.893 27.5086 131.677 26.9482C130.973 25.1156 129.761 23.2719 130.782 23.7419C130.828 23.7654 131.211 24.77 131.336 24.7808C132.147 24.8553 131.321 22.9823 131.889 22.428C132.334 21.9931 133.817 22.6548 134.508 22.5414C135.938 25.4872 136.175 24.5353 135.412 22.3953C135.843 22.2866 136.209 21.9647 136.725 22.0591C136.902 22.0907 137.234 22.9838 137.296 23.0677C138.256 24.3866 137.458 22.3312 137.505 22.2124C138.049 21.0129 139.523 22.1439 139.679 20.2553C139.684 20.1875 138.732 18.1211 139.697 19.4975C139.762 19.5929 139.93 20.6632 140.376 20.5337C140.821 20.4043 142.133 21.1186 142.24 19.8919C142.266 19.5965 141.8 17.7686 142.715 18.9266C142.838 19.0842 143.085 19.6898 143.298 19.9893C143.982 20.9424 143.063 18.8322 144.128 20.4853C145.193 22.1383 146.262 23.2428 146.242 21.7513C146.243 21.7071 145.576 20.0047 145.77 19.9419C146.079 19.843 146.656 19.9825 146.953 19.8238C147.094 19.7472 146.503 18.7769 146.519 18.746C147.214 17.6987 148.341 18.2691 149.573 18.1521C149.799 18.1328 149.666 16.4793 150.572 17.3932C151.566 18.393 153.597 23.5837 153.946 21.9385C154.088 21.2786 151.457 14.7196 153.739 17.6669C154.645 16.214 156.678 17.2974 157.422 15.493C157.456 15.4127 156.775 13.5559 156.925 13.512C157.15 13.4502 157.668 14.22 157.841 14.2024C158.578 14.1491 158.794 13.1667 159.441 12.985C159.686 12.9142 160.027 13.8061 160.319 13.7218C160.611 13.6367 160.238 12.4252 160.869 12.7889C161.347 13.0674 162.751 15.2284 163.247 15.317C162.148 13.0451 162.421 12.9689 162.572 12.1525C162.601 11.9945 162.122 11.2512 162.116 11.1357C162.081 10.6486 162.554 11.2271 162.493 10.708C162.479 10.5831 162.101 9.80869 162.068 9.6629C161.773 8.39385 163.063 9.91985 163.287 10.186C164.139 11.1957 163.779 10.1238 164.221 10.4688C164.664 10.8139 164.613 11.5416 165.005 11.6904C165.816 11.9977 166.44 11.5366 166.998 11.3065C167.218 11.2102 166.564 10.2498 166.584 10.212C166.9 9.73142 167.89 10.6085 167.127 8.43038C170.048 13.5968 167.143 7.78262 168.303 8.5343C168.395 8.59577 169.694 11.0793 169.683 11.5432C169.671 12.0066 168.993 11.364 169.008 12.0708C169.011 12.2369 169.806 14.7716 169.827 14.9386C169.987 16.2445 168.087 12.5133 167.965 12.3169C166.639 10.2033 167.442 12.9599 167.411 13.1928C167.271 14.2592 166.558 13.9536 166.393 14.7468C166.283 15.2612 167.463 17.7369 167.197 17.7742C166.312 17.8996 164.36 14.596 165.104 17.9262C165.262 18.6368 166.736 21.2524 165.146 19.4074C165.046 19.2909 163.685 17.5571 164.049 18.8978C164.095 19.0668 164.481 19.8505 164.474 19.9356C164.42 20.491 163.938 19.9525 163.798 20.3924C163.658 20.8323 163.533 21.4475 163.075 21.3421C162.8 21.2798 161.83 19.9429 161.56 19.6315C160.788 18.7318 161.332 20.5614 160.555 19.3945C159.773 18.2221 159.163 16.1581 158.329 15.5618C159.313 17.6071 160.303 19.7163 161.283 21.7779C160.295 22.174 159.025 21.9801 158.111 22.5408C157.998 22.6124 158.658 23.6479 158.551 23.7529C158.098 24.1911 157.245 23.6408 156.841 24.2252C156.53 24.6818 156.627 26.0734 156.318 26.5881C154.896 24.3925 154.614 25.5135 154.022 25.5395C153.816 25.5496 153.521 24.9214 153.3 24.7778C152.474 24.2511 153.7 26.206 153.734 26.5918C153.875 28.2395 151.54 23.599 150.963 24.0251C150.932 24.0461 151.742 26.733 151.762 26.9155C151.899 28.1009 151.278 26.0794 150.963 26.0061C150.386 25.8728 149.808 25.4197 149.683 26.3848C149.648 26.6695 150.071 28.3845 149.21 27.3202C149.097 27.1809 148.713 26.3496 148.661 26.3157C147.744 25.7705 148.997 28.3588 149.128 29.3798C149.258 30.4007 147.922 28.8448 147.576 28.3772C146.679 27.1689 147.486 27.7171 147.435 27.5801C146.829 25.9517 146.624 26.384 146.303 26.3789C145.023 23.8658 144.739 24.1939 145.975 26.3838C146.111 26.6227 146.195 26.2885 146.303 26.3789C147.296 28.9733 147.06 29.4839 145.482 27.3788C144.743 26.3917 144.314 25.0283 143.919 25.7979C143.739 26.146 144.704 27.8354 144.688 28.4329C144.651 29.7965 143.114 28.5331 142.655 29.0764C142.488 29.2736 143.163 30.1262 143.066 30.2939C142.808 30.7417 142.117 30.1923 141.911 30.7485C141.893 30.8003 142.469 31.7568 142.354 31.8288C141.494 32.3948 140.384 32.1461 139.422 32.596C138.958 32.8138 138.406 33.7679 137.877 33.8903C136.955 34.1119 135.222 33.1599 134.689 33.8591C134.339 34.311 134.931 35.2604 135.067 36.0378C135.334 37.544 133.502 35.5104 133.232 35.1887C133.224 35.178 133.503 34.7486 133.041 34.3392C132.394 33.3308 133.235 35.1819 133.232 35.1887C133.059 34.9805 132.152 35.1443 132.088 35.4126C132.053 35.5591 132.565 36.4821 132.538 36.5405C131.891 37.9091 130.948 38.6702 129.661 38.7524C129.632 38.7426 129.141 37.6698 129.082 37.6598C128.234 37.4916 128.462 38.9862 128.326 40.0069C128.189 41.0279 127.655 40.9701 126.461 39.3012C126.186 39.7199 125.237 39.188 124.68 38.8565C124.123 38.525 125.089 40.6079 125.081 40.6623C124.847 42.3947 123.752 41.4679 122.753 41.7302C122.275 41.8518 121.565 42.5708 121.209 43.0248C120.928 43.3875 120.474 43.011 120.28 43.4891C120.254 43.5531 120.751 44.448 120.754 44.4903C120.909 45.7761 119.993 43.4421 119.718 43.0801C118.717 41.7632 118.16 41.0738 118.007 41.9988C117.972 42.2111 119.227 45.6026 119.114 45.8921C118.965 46.2624 118.498 45.0551 118.357 45.4722C118.344 45.5069 118.699 46.2189 118.512 46.2716C117.646 46.5261 116.578 46.5337 115.775 47.0162C115.664 47.0791 116.366 48.1408 116.215 48.2503C115.508 48.763 114.645 49.1341 113.639 48.9691C113.389 48.925 113.116 48.075 112.96 47.859C112.017 46.5532 112.686 48.7943 112.648 48.8617C111.752 50.5343 109.782 49.1749 108.828 50.7483C108.78 50.8371 109.28 53.3452 108.083 51.57C108.003 51.4521 106.789 49.6309 107.211 51.0757C107.238 51.1661 107.89 52.09 107.558 52.1261C107.225 52.1624 107.099 53.0544 106.173 52.1413C105.881 51.8539 104.641 50.0515 105.035 51.7791C105.064 51.8989 106.218 55.6774 104.835 53.3575C104.607 52.9761 103.394 50.3986 103.596 51.9257C103.636 52.2211 104.068 52.7171 104.021 53.1817C103.951 53.8967 103.167 53.4307 103.31 54.7731C103.337 55.0102 103.879 56.8971 102.988 55.6995C102.848 55.5119 102.504 54.6219 102.327 54.5899C101.484 54.4339 101.124 55.3183 100.207 55.0342C99.8811 54.9362 99.3205 53.4993 98.906 53.2434C98.4913 52.9878 97.8478 52.8615 97.9132 53.6114C97.9785 54.3617 99.3201 56.4328 99.042 56.7869C97.8408 58.3218 95.6363 57.7995 93.9671 58.3809C93.72 58.4666 94.298 59.1599 93.9619 59.3426C92.738 60.013 90.8654 61.8418 88.966 60.696C87.4251 59.7878 88.0473 58.2203 87.0988 58.0076C86.6422 57.9081 87.5359 60.6412 87.4961 60.7604C87.1221 61.9563 86.0352 61.0826 85.5173 61.7659C85.4106 61.9073 86.0557 62.877 85.9594 62.9859C85.6377 63.3655 84.9708 63.1174 84.6108 63.3977C84.4508 63.5257 84.8702 64.3021 84.6753 64.3214C84.2136 64.3766 83.7034 64.213 82.9596 63.6562C82.8918 63.6054 82.646 62.5051 82.3384 62.6097C81.8403 62.7824 80.912 62.3278 80.7368 63.3496C80.6854 63.6563 81.5611 65.4712 80.6037 64.3896C80.4035 64.1638 79.4367 61.9432 79.9478 64.0198C80.0317 64.3654 80.5889 67.2306 79.4634 65.7568C79.1668 65.3691 78.078 63.6969 78.0226 64.07C78.0184 64.1273 78.5962 65.0498 78.4836 65.222C78.0831 65.8098 77.4365 65.9961 77.0002 66.5853C76.8851 66.7443 77.6069 67.6387 77.4197 67.8436C76.9057 68.4085 75.9922 68.5356 75.2269 68.5178C74.9439 68.5093 74.6942 67.599 74.6336 67.5162C73.6549 66.1659 74.456 68.2412 74.4243 68.4003C74.2035 69.3682 73.3257 68.637 72.9375 69.1319C72.8292 69.2659 73.3905 70.1683 73.4037 70.2667C73.5167 71.2355 72.9029 69.4235 72.6286 69.3241C71.8539 69.0417 71.341 69.3852 70.8632 69.7672C70.6922 69.9071 71.4447 70.9042 71.285 71.017C70.3453 71.7078 69.2665 72.1007 67.9697 71.9784C67.7242 71.9536 67.4316 71.0467 67.2982 70.8718C66.369 69.6464 66.871 71.6889 66.8658 71.9091C66.8437 72.9139 66.3208 72.2399 66.0281 72.5547C64.5958 74.1101 62.1683 74.67 60.33 75.1779C57.9668 75.8304 55.8636 75.8469 53.8851 77.0558C53.7605 77.1307 54.4355 78.1993 54.3352 78.2784C53.4723 78.9095 52.4372 79.2557 51.5097 79.6744C50.9682 79.9197 50.4501 80.1911 49.9847 80.5558C49.876 80.6382 50.5626 81.6292 50.4056 81.7975C50.0923 82.1477 49.5541 82.3329 48.9759 82.1875C48.697 82.1176 48.5258 81.0679 48.2544 81.0162C47.6216 80.8936 47.0944 81.0507 46.7121 81.4438C46.5393 81.6187 47.3769 82.5683 47.1118 82.7099C45.3425 83.6847 43.6985 84.6949 41.1829 84.1365C41.0114 84.0975 39.8635 81.9036 39.791 82.4618C40.0624 83.0929 40.407 83.8233 40.71 84.4917C38.2321 86.0924 35.2744 86.5242 32.5281 87.6321C32.4116 87.6794 33.153 88.7819 32.9305 88.8794C31.6552 89.4395 30.5675 90.3291 28.7046 89.7289C28.5197 89.6713 27.6505 87.5346 27.4007 88.0257C27.357 88.1148 26.9053 88.6485 26.9423 89.1782C26.9515 89.2565 27.4901 90.196 27.3102 90.3085C26.2558 90.9445 24.97 91.2267 23.4686 91.1156C23.2332 91.0924 23.0222 89.9433 22.8476 89.9187C22.2326 89.8396 21.7155 90.1003 21.0903 90.3323C20.5269 90.5485 19.498 90.8243 18.8052 90.4918C18.784 90.4787 18.7629 90.465 18.7419 90.4506C17.9698 89.9161 17.7289 87.936 16.9542 86.1156C16.8498 85.8579 16.4369 85.9088 16.16 84.807C15.5079 82.0289 14.9752 78.9466 14.2498 75.9922C14.193 75.6703 14.0263 75.7161 14.2203 75.5732C14.2844 75.5364 14.3952 75.4789 14.6981 75.3991C14.8506 75.3593 15.0603 75.319 15.2053 75.284C15.3536 75.2488 15.38 75.2138 15.3813 75.1718C15.3544 75.0916 15.5133 74.973 14.9592 74.8625C14.4335 74.7615 14.1352 74.6588 13.9981 74.4811C13.7273 74.427 13.8682 73.8613 13.8221 73.3191C13.7865 72.9461 13.4368 71.8428 13.4251 71.3573C13.415 70.8718 13.7573 71.7848 13.8153 71.1965C13.86 70.7339 13.6318 69.8728 13.6911 69.3973C13.7067 69.2612 13.7191 69.1631 13.7036 69.1312ZM122.173 37.3823C121.39 36.5382 123.124 40.1852 123.02 39.1602C123.013 39.1063 122.212 37.4234 122.173 37.3823ZM157.689 19.2429C156.517 17.8344 157.407 20.315 158.286 21.4156C159.165 22.5148 158.045 19.6696 157.689 19.2429ZM161.126 16.1066C160.055 15.0682 162.508 20.2427 162.482 18.9659C162.481 18.8934 161.189 16.1669 161.126 16.1066ZM18.4555 85.1578C18.4364 85.1086 18.0904 85.1547 18.0986 85.2065C18.2507 86.4973 18.9953 86.39 18.4555 85.1578ZM164.482 12.8817C164 12.2558 163.988 13.2577 164.587 14.0362C165.07 14.6624 165.082 13.6602 164.482 12.8817ZM104.836 41.0775C104.804 41.0258 104.61 41.0607 104.763 41.3645C105.256 42.3427 105.358 41.9487 104.836 41.0775ZM171.217 9.50057C170.122 9.79821 167.432 5.85036 168.756 5.7948C168.995 5.78465 168.995 7.3573 169.434 7.61682C170.236 8.08862 169.232 5.27324 170.402 6.47141C170.615 6.69117 171.285 9.49302 171.219 9.50735C171.218 9.50509 171.218 9.50282 171.217 9.50057ZM119.867 33.1115C119.837 33.0665 119.576 33.1379 119.594 33.1882C120.029 34.4025 120.555 34.2593 119.867 33.1115ZM93.7238 43.7345C93.6605 43.6388 93.0602 43.8138 93.0884 43.9167C93.7203 45.9411 94.9366 45.5929 93.7238 43.7345ZM134.556 22.6152C134.247 21.3305 134.49 21.0421 135.41 22.3944C135.114 22.4437 134.85 22.5595 134.556 22.6152Z" fill="#FFF2DE"/>
<path d="M104.999 92.4492C105.313 92.167 105.457 92.5937 105.5 93.1388C105.516 93.3086 105.304 93.9929 105.307 94.1413C105.316 94.4314 105.473 94.11 105.46 94.4493C105.455 94.5652 105.135 95.6531 105.136 95.7495C105.146 96.2703 105.356 96.0274 105.429 96.2959C105.807 97.6265 106.36 98.2136 106.909 98.8926C107.099 99.1177 107.096 100.181 107.451 99.8088C107.491 99.764 107.728 98.7975 107.754 98.7195C108.151 97.526 107.615 99.4619 107.6 99.7336C107.537 100.807 107.758 100.959 108.05 100.638C108.177 100.5 108.59 98.5653 108.396 99.6609C108.383 99.735 108.095 100.752 108.09 100.867C108.079 101.126 108.228 100.97 108.249 101.062C108.287 101.244 108.304 101.237 108.377 101.269C108.472 101.32 108.461 101.86 108.632 101.657C108.669 101.61 108.91 100.554 108.994 100.385C109.078 100.217 109.155 100.331 109.125 100.587C109.095 100.844 108.867 101.664 108.824 101.854C108.463 103.462 109.147 101.283 109.176 101.232C109.681 100.37 109.598 101.69 109.847 101.75C110.039 101.794 110.356 101.432 110.522 101.535C110.72 101.662 110.761 102.278 111 102.235C111.024 102.231 111.311 100.99 111.342 100.983C111.663 100.912 111.922 101.12 111.999 102.026C112.006 102.118 111.697 103.193 111.689 103.35C111.641 104.285 111.394 106.498 112.675 101.8C112.748 102.014 112.845 102.241 112.717 103.22C112.635 103.85 112.274 105.016 112.485 104.533C112.532 104.425 112.763 103.383 112.814 103.3C113.03 102.951 113.081 103.321 113.331 102.815C113.383 102.71 113.604 101.78 113.652 101.614C114.043 100.275 113.589 102.536 113.57 102.704C113.433 103.956 113.668 103.508 113.811 103.574C113.844 103.59 114.107 102.333 114.15 102.303C114.365 102.166 114.517 102.317 114.552 102.911C114.56 103.047 114.268 104.101 114.258 104.22C114.219 104.732 114.722 102.729 114.693 103.181C114.688 103.274 114.459 104.182 114.438 104.282C114.106 105.863 114.682 103.649 114.705 103.603C115.015 102.968 114.553 105.312 114.777 105.018C114.804 104.98 115.041 103.819 115.101 103.784C115.501 103.544 115.764 103.94 115.868 104.938C115.885 105.092 115.645 105.95 115.623 106.057C115.282 107.738 115.841 105.51 115.877 105.43C116.147 104.854 115.829 106.757 116.538 104.114C116.867 105.165 117.745 103.791 117.743 106.303C117.743 106.332 117.482 107.433 117.484 107.486C117.51 108.143 117.866 106.421 118.445 104.348C118.59 103.827 118.105 106.379 118.072 106.566C117.945 107.256 117.549 108.892 117.529 109.027C117.372 110.084 118.575 104.651 118.675 104.671C118.676 104.681 118.44 105.678 118.426 105.779C118.382 106.097 118.497 105.705 118.446 106.055C118.327 106.865 117.762 109.509 118.194 107.993C118.25 107.796 118.916 104.71 118.973 104.876C118.995 104.944 119.164 104.926 119.164 105.136C119.164 105.345 118.915 106.332 118.909 106.375C118.74 107.716 118.575 108.25 118.21 110.209C117.847 112.16 118.842 107.534 118.979 107.024C119.116 106.514 118.967 107.618 118.907 108C118.847 108.382 118.682 109.007 118.655 109.225C118.481 110.647 119.211 106.942 119.412 106.217C119.888 104.501 119.22 107.947 119.24 108.303C119.245 108.399 119.393 107.613 119.431 107.545C119.577 107.284 119.4 108.366 119.709 107.406C119.76 107.249 120.28 105.203 120.008 106.728C119.969 106.948 119.766 107.799 119.762 107.998C119.756 108.298 119.816 108.506 119.936 108.232C120.024 108.03 120.273 106.61 120.235 107.059C120.218 107.26 119.998 108.075 119.981 108.384C119.964 108.692 120.089 108.68 120.14 108.661C120.191 108.642 120.391 107.567 120.41 107.495C120.518 107.087 120.711 106.589 120.718 106.592C121.121 106.539 121.102 108.416 121.593 107.893C121.631 107.853 121.839 106.719 121.847 106.702C122.04 106.248 121.36 109.237 121.229 110.257C121.668 108.009 121.637 108.369 121.748 108.161L121.653 108.144C121.655 108.14 121.657 108.135 121.659 108.13C121.713 108.011 121.829 107.113 121.846 107.022C122.104 105.67 121.876 107.432 121.83 107.793C121.664 109.12 121.939 107.564 121.828 108.451C121.718 109.331 121.467 110.623 121.538 110.617C121.683 109.792 121.962 107.621 122.068 107.279C122.473 105.984 122.58 107.737 122.709 107.937C122.838 108.137 122.911 107.992 122.956 108.305C123.038 108.871 123.219 107.256 123.427 106.536C123.633 105.815 123.003 109.76 122.893 110.611C122.782 111.463 122.927 110.591 122.877 111.061C122.827 111.53 122.702 112.102 122.72 112.283C122.739 112.465 123.078 110.971 123.219 110.084C123.52 108.206 123.752 106.223 123.759 106.932C123.76 106.974 123.592 108.011 123.601 108.12C123.678 108.947 123.87 109.024 123.972 109.758C123.986 109.86 123.814 111.016 123.821 111.089C123.895 111.852 124.083 109.89 124.435 107.728C124.06 110.616 123.893 112.391 124.024 112.424C124.102 112.445 124.237 111.18 124.388 110.295C124.433 110.028 124.387 110.902 124.464 110.309C124.714 108.369 124.912 106.188 124.931 107.068C124.932 107.109 124.799 108.171 124.81 108.238C124.883 108.673 125.114 106.64 125.258 106.406C125.369 106.222 125.419 107.48 125.515 107.692C125.221 110.953 125.408 110.217 125.638 107.97C125.704 108.069 125.792 107.948 125.84 108.264C125.856 108.372 125.768 109.316 125.763 109.419C125.692 111.025 125.89 108.837 125.911 108.752C126.002 108.437 126.059 108.488 126.115 108.58C126.201 108.728 126.284 108.981 126.445 107.986C126.455 107.928 126.594 105.658 126.543 107.318C126.539 107.433 126.425 108.463 126.5 108.547C126.573 108.632 126.665 109.857 126.829 108.81C126.869 108.558 127.022 106.717 127.01 108.16C127.008 108.356 126.97 109.008 126.965 109.371C126.948 110.528 127.068 108.232 127.024 110.185C126.979 112.138 127.01 113.603 127.185 112.262C127.19 112.223 127.291 110.403 127.326 110.433C127.383 110.483 127.452 110.866 127.514 110.856C127.544 110.851 127.566 109.719 127.572 109.699C127.79 109.072 127.894 110.085 128.092 110.529C128.129 110.613 128.288 109.074 128.325 110.296C128.367 111.633 128.113 117.183 128.346 115.866C128.441 115.339 128.745 108.298 128.776 111.951C129.07 111.055 129.262 112.93 129.567 111.646C129.581 111.59 129.677 109.625 129.705 109.652C129.746 109.697 129.742 110.617 129.77 110.678C129.887 110.959 130.027 110.176 130.145 110.302C130.19 110.348 130.143 111.298 130.196 111.352C130.249 111.406 130.327 110.157 130.381 110.763C130.423 111.226 130.392 113.784 130.455 114.085C130.544 111.563 130.593 111.617 130.707 110.954C130.729 110.826 130.742 109.947 130.754 109.841C130.804 109.39 130.809 110.119 130.859 109.627C130.872 109.509 130.903 108.648 130.915 108.503C131.017 107.237 131.036 109.177 131.039 109.515C131.049 110.798 131.12 109.679 131.146 110.185C131.171 110.692 131.08 111.319 131.12 111.627C131.203 112.265 131.346 112.131 131.454 112.175C131.497 112.188 131.516 111.037 131.524 111.012C131.628 110.725 131.664 111.951 131.819 109.664C131.613 115.586 131.9 109.093 131.978 110.284C131.984 110.38 131.863 113.179 131.805 113.588C131.748 113.997 131.731 113.12 131.648 113.758C131.628 113.907 131.44 116.527 131.424 116.686C131.296 117.924 131.467 113.741 131.473 113.511C131.533 111.029 131.322 113.851 131.292 114.046C131.15 114.936 131.084 114.344 130.971 114.979C130.897 115.39 130.787 118.13 130.746 118.045C130.612 117.762 130.695 113.937 130.437 117.247C130.382 117.953 130.308 120.95 130.283 118.59C130.281 118.442 130.274 116.284 130.182 117.646C130.17 117.817 130.141 118.69 130.131 118.763C130.064 119.236 130.053 118.54 129.987 118.871C129.92 119.202 129.837 119.697 129.782 119.399C129.749 119.22 129.749 117.592 129.743 117.193C129.725 116.044 129.611 117.923 129.62 116.533C129.628 115.136 129.759 113.017 129.697 112.112C129.626 114.38 129.548 116.709 129.474 118.99C129.287 118.905 129.118 118.165 128.92 118.26C128.895 118.274 128.885 119.494 128.857 119.541C128.742 119.731 128.67 118.859 128.545 119.202C128.447 119.472 128.311 120.761 128.205 121.083C128.225 118.485 128.057 119.362 127.96 119.122C127.926 119.039 127.951 118.346 127.932 118.119C127.861 117.279 127.834 119.574 127.795 119.934C127.629 121.471 127.787 116.279 127.648 116.403C127.642 116.408 127.459 119.172 127.439 119.344C127.321 120.465 127.46 118.38 127.418 118.174C127.341 117.797 127.303 117.134 127.167 117.941C127.128 118.18 126.984 119.901 126.975 118.565C126.974 118.39 127.014 117.476 127.01 117.422C126.931 116.524 126.81 119.398 126.699 120.368C126.588 121.338 126.564 119.35 126.569 118.777C126.579 117.296 126.641 118.147 126.65 118.002C126.761 116.277 126.673 116.571 126.622 116.422C126.742 113.605 126.657 113.77 126.568 116.279C126.559 116.554 126.616 116.293 126.622 116.422C126.446 119.184 126.329 119.533 126.357 116.946C126.37 115.733 126.485 114.324 126.321 114.833C126.246 115.063 126.168 117.003 126.081 117.529C125.878 118.727 125.805 116.909 125.647 117.185C125.589 117.285 125.571 118.349 125.528 118.453C125.498 118.527 125.474 118.527 125.452 118.493C125.389 118.399 125.349 118.038 125.257 118.334C125.245 118.372 125.187 119.483 125.155 119.495C124.91 119.607 124.762 118.88 124.523 118.839C124.409 118.82 124.14 119.411 124.03 119.276C123.835 119.048 123.758 117.413 123.545 117.784C123.403 118.021 123.299 119.129 123.161 119.876C122.888 121.324 123.032 118.689 123.064 118.282C123.065 118.269 123.193 118.02 123.212 117.447C123.328 116.262 123.066 118.277 123.064 118.282C123.081 118.019 122.923 117.744 122.858 117.95C122.823 118.063 122.699 119.11 122.683 119.149C122.301 120.051 121.999 120.28 121.817 119.756C121.816 119.734 121.99 118.568 121.985 118.531C121.917 117.992 121.62 119.406 121.376 120.236C121.134 121.065 121.083 120.768 121.32 118.756C121.197 118.995 121.213 118.092 121.228 117.545C121.244 116.998 120.887 119.266 120.874 119.31C120.47 120.717 120.567 119.403 120.42 119.173C120.35 119.06 120.135 119.364 120.011 119.599C119.966 119.685 119.95 119.623 119.935 119.559C119.876 119.491 119.55 119.552 119.494 119.482C119.475 119.402 119.458 119.319 119.38 119.497C119.362 119.54 119.171 120.544 119.16 120.582C118.838 121.765 119.368 119.323 119.439 118.882C119.697 117.278 119.832 116.424 119.578 117.151C119.52 117.318 118.737 120.83 118.651 121.028C118.54 121.277 118.818 120.018 118.696 120.312C118.686 120.336 118.528 121.116 118.498 121.074C118.353 120.889 118.262 120.397 118.067 120.439C118.042 120.441 117.817 121.683 117.775 121.707C117.579 121.82 117.404 121.735 117.366 121.124C117.357 120.969 117.564 120.11 117.61 119.851C117.885 118.287 117.335 120.528 117.313 120.569C116.791 121.591 117.001 119.501 116.498 120.409C116.47 120.463 115.82 122.852 116.215 120.768C116.241 120.629 116.648 118.497 116.284 119.936C116.261 120.026 116.057 121.125 116.022 121C115.987 120.876 115.73 121.584 115.911 120.367C115.968 119.984 116.372 117.857 115.925 119.525C115.895 119.642 114.934 123.424 115.472 120.787C115.561 120.353 116.184 117.574 115.777 118.979C115.698 119.252 115.593 119.879 115.46 120.256C115.257 120.837 115.329 120.072 114.966 121.29C114.902 121.506 114.415 123.378 114.683 121.935C114.725 121.709 114.948 120.784 114.944 120.674C114.925 120.147 114.65 120.737 114.663 120.066C114.667 119.83 115.03 118.336 115.072 117.923C115.115 117.51 115.106 117.102 114.901 117.776C114.695 118.45 114.207 120.851 114.088 121.025C113.566 121.78 113.558 120.303 113.278 120.023C113.236 119.981 113.079 120.844 113.003 120.844C112.722 120.846 112.076 121.538 112.274 119.671C112.434 118.176 112.924 117.125 112.925 116.501C112.925 116.203 112.197 118.958 112.16 119.041C111.791 119.89 111.972 118.636 111.74 118.979C111.692 119.05 111.453 120.18 111.415 120.228C111.282 120.402 111.311 119.879 111.207 119.951C111.16 119.986 110.961 120.845 110.943 120.771C110.897 120.603 110.912 120.225 111.027 119.403C111.037 119.328 111.342 118.273 111.292 118.219C111.21 118.135 111.282 117.314 110.973 118.105C110.881 118.343 110.406 120.302 110.662 118.932C110.715 118.646 111.304 116.299 110.729 118.311C110.634 118.645 109.83 121.352 110.191 119.569C110.286 119.099 110.708 117.164 110.595 117.457C110.578 117.504 110.344 118.561 110.286 118.656C110.088 118.971 109.993 118.829 109.794 119.129C109.74 119.211 109.521 120.311 109.449 120.399C109.251 120.642 109.156 120.325 109.113 119.953C109.098 119.814 109.352 118.921 109.372 118.822C109.711 117.214 109.149 119.359 109.099 119.48C108.801 120.203 108.963 119.171 108.793 119.412C108.746 119.476 108.513 120.507 108.485 120.597C108.204 121.477 108.704 119.645 108.717 119.433C108.754 118.831 108.617 118.885 108.479 118.99C108.427 119.03 108.175 120.23 108.133 120.252C107.874 120.405 107.684 120.237 107.647 119.531C107.64 119.396 107.894 118.487 107.938 118.276C108.25 116.799 107.671 118.775 107.605 118.96C107.304 119.807 107.473 118.989 107.361 119.121C106.809 119.782 106.498 119.133 106.244 118.716C105.908 118.177 105.796 117.222 105.312 117.338C105.282 117.344 104.995 118.567 104.965 118.588C104.594 118.805 104.42 118.253 104.034 118.527C104.003 118.547 103.738 119.708 103.678 119.78C103.554 119.935 103.467 119.845 103.48 119.456C103.486 119.268 103.797 118.294 103.798 118.125C103.801 117.73 103.723 117.622 103.58 117.782C103.519 117.853 103.272 119.047 103.216 119.047C102.825 119.069 102.425 119.181 102.458 117.56C102.46 117.449 103.068 115.05 102.896 115.496C102.717 116.158 102.511 116.94 102.323 117.649C101.699 117.893 101.411 116.93 100.924 116.664C100.904 116.653 100.605 117.93 100.565 117.915C100.33 117.833 100.001 118.121 100.084 116.795C100.092 116.666 100.696 114.44 100.535 114.758C100.505 114.816 100.321 115.085 100.166 115.562C100.143 115.634 99.8858 116.679 99.8446 116.701C99.5923 116.803 99.4534 116.512 99.4275 115.825C99.4252 115.713 99.7489 114.613 99.7497 114.523C99.7431 113.892 99.359 114.692 99.4876 113.651C99.5837 112.952 100.099 111.039 100.53 109.136C100.589 108.867 100.545 108.811 100.818 107.71C101.5 104.939 102.293 101.916 103.017 98.9626C103.173 98.3262 102.89 98.983 103.339 97.4632C103.369 97.3614 103.581 96.8729 103.735 96.3579C103.841 96.0018 104.095 94.8758 104.244 94.4231C104.392 93.9708 104.194 94.9186 104.379 94.3895C104.563 93.853 104.87 92.5763 104.999 92.4492ZM121.301 115.101C121.409 114.002 120.786 117.991 120.997 117.046C121.008 116.996 121.296 115.154 121.301 115.101ZM129.207 115.121C129.18 113.339 129.051 115.955 129.066 117.331C129.081 118.706 129.216 115.661 129.207 115.121ZM130.057 113.846C130.01 112.44 129.816 118.162 129.949 117.008C129.956 116.943 130.06 113.928 130.057 113.846ZM100.912 108.661C100.924 108.608 100.89 108.546 100.876 108.597C100.53 109.832 100.596 109.956 100.912 108.661ZM130.907 112.459C130.907 111.684 130.792 112.574 130.792 113.538C130.792 114.313 130.906 113.423 130.907 112.459ZM118.826 110.23C118.838 110.171 118.815 110.111 118.744 110.443C118.515 111.514 118.629 111.223 118.826 110.23ZM132.27 112.453C132.085 112.228 132.186 107.497 132.391 108.042C132.428 108.141 132.226 109.544 132.257 109.972C132.311 110.753 132.53 107.791 132.544 109.385C132.545 109.677 132.279 112.477 132.269 112.46C132.269 112.458 132.27 112.455 132.27 112.453ZM122.004 110.302C122.011 110.249 121.971 110.191 121.962 110.244C121.741 111.506 121.822 111.623 122.004 110.302ZM117.374 107.351C117.396 107.24 117.311 107.111 117.284 107.213C116.763 109.244 116.936 109.51 117.374 107.351ZM125.509 107.779C125.671 106.499 125.734 106.352 125.638 107.969C125.597 107.879 125.55 107.862 125.509 107.779Z" fill="#FFF2DE"/>
</svg>
